<?xml version="1.0" encoding="UTF-8" standalone="no"?>
<!-- Created with Inkscape (http://www.inkscape.org/) -->

<svg
   xmlns:dc="http://purl.org/dc/elements/1.1/"
   xmlns:cc="http://creativecommons.org/ns#"
   xmlns:rdf="http://www.w3.org/1999/02/22-rdf-syntax-ns#"
   xmlns:svg="http://www.w3.org/2000/svg"
   xmlns="http://www.w3.org/2000/svg"
   xmlns:sodipodi="http://sodipodi.sourceforge.net/DTD/sodipodi-0.dtd"
   xmlns:inkscape="http://www.inkscape.org/namespaces/inkscape"
   width="320"
   height="200"
   viewBox="0 0 320 200"
   id="svg2"
   version="1.1"
   inkscape:version="0.91 r13725"
   sodipodi:docname="observer-dpstates.svg">
  <defs
     id="defs4" />
  <sodipodi:namedview
     id="base"
     pagecolor="#ffffff"
     bordercolor="#666666"
     borderopacity="1.0"
     inkscape:pageopacity="0.0"
     inkscape:pageshadow="2"
     inkscape:zoom="2.465"
     inkscape:cx="160"
     inkscape:cy="100"
     inkscape:document-units="px"
     inkscape:current-layer="layer1"
     showgrid="false"
     units="px"
     inkscape:window-width="1280"
     inkscape:window-height="695"
     inkscape:window-x="0"
     inkscape:window-y="0"
     inkscape:window-maximized="1" />
  <metadata
     id="metadata7">
    <rdf:RDF>
      <cc:Work
         rdf:about="">
        <dc:format>image/svg+xml</dc:format>
        <dc:type
           rdf:resource="http://purl.org/dc/dcmitype/StillImage" />
        <dc:title></dc:title>
      </cc:Work>
    </rdf:RDF>
  </metadata>
  <g
     inkscape:label="Layer 1"
     inkscape:groupmode="layer"
     id="layer1"
     transform="translate(0,-852.36216)">
    <path
       style="opacity:1;fill:#000000;fill-opacity:1;stroke:none;stroke-width:1;stroke-linecap:round;stroke-linejoin:round;stroke-miterlimit:4;stroke-dasharray:none;stroke-opacity:1"
       id="path4368"
       d="m 214.71743,967.15277 c 0.98955,0.7536 1.8635,1.6427 2.81364,2.44234 0.65881,0.58603 1.33856,1.14063 1.99146,1.73253 1.27134,1.16019 -0.36942,2.95814 -1.64076,1.79795 l 0,0 c -0.62642,-0.57449 -1.28932,-1.10173 -1.92184,-1.67139 -0.9113,-0.77286 -1.75939,-1.61904 -2.70295,-2.35417 -1.37692,-1.03269 0.0835,-2.97995 1.46045,-1.94726 z"
       inkscape:connector-curvature="0" />
    <path
       style="opacity:1;fill:#000000;fill-opacity:1;stroke:none;stroke-width:2;stroke-linecap:round;stroke-linejoin:round;stroke-miterlimit:4;stroke-dasharray:none;stroke-opacity:1"
       id="path4158"
       d="m 81.135902,869.96942 c 0.21379,-1.51851 1.197585,-2.81151 2.479284,-3.62919 0.339665,-0.2167 0.712428,-0.37652 1.068642,-0.56477 2.515579,-0.93624 5.247415,-1.15681 7.914151,-1.17014 0.329069,0.031 0.658138,0.062 0.987207,0.0931 1.712467,0.17269 1.468246,2.59449 -0.244221,2.4218 l 0,0 c -0.245481,-0.0269 -0.490961,-0.0539 -0.736442,-0.0808 -2.288979,0 -4.63296,0.19296 -6.817639,0.90586 -0.929686,0.44415 -1.829691,1.01355 -2.216905,2.02417 0,1.72115 -2.434077,1.72115 -2.434077,0 z"
       inkscape:connector-curvature="0" />
    <path
       style="opacity:1;fill:#000000;fill-opacity:1;stroke:none;stroke-width:2;stroke-linecap:round;stroke-linejoin:round;stroke-miterlimit:4;stroke-dasharray:none;stroke-opacity:1"
       id="path4160"
       d="m 80.731469,892.58689 c -0.129427,2.65357 -0.479147,5.29971 -0.823725,7.93435 -0.287324,1.7267 -0.547143,3.4551 -0.677079,5.2013 -0.08826,0.95182 -0.05093,0.48109 -0.112818,1.412 -0.115128,1.71726 -2.543745,1.55451 -2.42863,-0.16285 l 0,0 c 0.06619,-0.97937 0.02749,-0.50198 0.114285,-1.43242 0.136901,-1.79002 0.391224,-3.564 0.690737,-5.33376 0.331246,-2.53141 0.667319,-5.07401 0.803164,-7.62246 0.0027,-1.72115 2.436795,-1.71731 2.434073,0.004 z"
       inkscape:connector-curvature="0" />
    <path
       style="opacity:1;fill:#000000;fill-opacity:1;stroke:none;stroke-width:2;stroke-linecap:round;stroke-linejoin:round;stroke-miterlimit:4;stroke-dasharray:none;stroke-opacity:1"
       id="path4164"
       d="m 71.313692,891.44023 c -2.441463,2.92975 -4.561758,6.11515 -6.690243,9.27534 -0.34289,0.53761 -0.685783,1.07523 -1.028674,1.61284 -0.925817,1.45095 -2.977759,0.14164 -2.051941,-1.30931 l 0,0 c 0.353937,-0.55444 0.707871,-1.10889 1.061803,-1.66335 2.265986,-3.3639 4.494767,-6.80086 7.203457,-9.82809 1.352387,-1.06462 2.857987,0.84795 1.505598,1.91257 z"
       inkscape:connector-curvature="0" />
    <path
       style="opacity:1;fill:#000000;fill-opacity:1;stroke:none;stroke-width:2;stroke-linecap:round;stroke-linejoin:round;stroke-miterlimit:4;stroke-dasharray:none;stroke-opacity:1"
       id="path4166"
       d="m 86.523455,888.18627 c 2.035346,1.23562 3.917738,2.69624 5.813047,4.13161 2.279071,1.69592 4.571141,3.36836 6.973041,4.88569 1.455067,0.91932 0.15496,2.9771 -1.300113,2.05778 l 0,0 c -2.459863,-1.55435 -4.808955,-3.26519 -7.142466,-5.00306 -1.885606,-1.42806 -3.7601,-2.87642 -5.782833,-4.1091 -1.388,-1.01776 0.05132,-2.98068 1.439324,-1.96292 z"
       inkscape:connector-curvature="0" />
    <path
       inkscape:connector-curvature="0"
       d="m 230.87478,987.1824 c -0.60118,2.58781 -1.41778,5.12897 -2.22728,7.65974 -0.59103,1.64764 -1.15531,3.30187 -1.59497,4.9968 -0.2568,0.92076 -0.13601,0.46426 -0.36313,1.36916 -0.41992,1.6691 -2.78045,1.0753 -2.36052,-0.5939 l 0,0 c 0.24,-0.95181 0.11669,-0.489 0.36823,-1.38899 0.45433,-1.73681 1.02134,-3.43686 1.63206,-5.1247 0.77794,-2.43157 1.56263,-4.8733 2.15135,-7.35653 0.31002,-1.693 2.70429,-1.25459 2.39427,0.43845 z"
       id="path4284"
       style="opacity:1;fill:#000000;fill-opacity:1;stroke:none;stroke-width:2;stroke-linecap:round;stroke-linejoin:round;stroke-miterlimit:4;stroke-dasharray:none;stroke-opacity:1" />
    <path
       inkscape:connector-curvature="0"
       d="m 222.57344,985.68601 c -3.48202,1.55554 -6.78824,3.48203 -10.09071,5.38227 -0.54457,0.33173 -1.08915,0.66346 -1.63372,0.99519 -1.47009,0.89511 -2.73596,-1.18391 -1.26587,-2.07902 l 0,0 c 0.5619,-0.34198 1.1238,-0.68396 1.6857,-1.02595 3.51562,-2.02261 7.03,-4.12719 10.79487,-5.6526 1.68299,-0.36043 2.19272,2.01968 0.50973,2.38011 z"
       id="path4286"
       style="opacity:1;fill:#000000;fill-opacity:1;stroke:none;stroke-width:2;stroke-linecap:round;stroke-linejoin:round;stroke-miterlimit:4;stroke-dasharray:none;stroke-opacity:1" />
    <path
       inkscape:connector-curvature="0"
       d="m 236.62487,983.11528 c 2.03535,1.23562 3.91774,2.69624 5.81305,4.13161 2.27907,1.69592 4.57114,3.36836 6.97304,4.88569 1.45507,0.91932 0.15496,2.9771 -1.30011,2.05778 l 0,0 c -2.45986,-1.55435 -4.80896,-3.26519 -7.14247,-5.00306 -1.8856,-1.42806 -3.7601,-2.87642 -5.78283,-4.1091 -1.388,-1.01776 0.0513,-2.98068 1.43932,-1.96292 z"
       id="path4288"
       style="opacity:1;fill:#000000;fill-opacity:1;stroke:none;stroke-width:2;stroke-linecap:round;stroke-linejoin:round;stroke-miterlimit:4;stroke-dasharray:none;stroke-opacity:1" />
    <path
       inkscape:connector-curvature="0"
       d="m 224.35746,1003.3879 c -1.66723,3.2244 -2.99772,6.606 -4.33652,9.9771 -2.34222,5.482 -4.42171,11.072 -6.45318,16.6751 -0.49691,1.35 -0.97676,2.7086 -1.38107,4.0899 -0.0745,0.2543 -0.18209,0.5037 -0.20775,0.7675 -0.005,0.047 0.0911,0.095 0.12688,0.064 0.0818,-0.071 0.0923,-0.1959 0.13844,-0.2939 2.15285,0.5992 4.41077,0.6932 6.62588,0.8775 3.23991,0.2697 2.23519,0.1878 5.49396,0.4286 3.88055,0.2668 7.76666,0.4472 11.65504,0.5448 0.17041,0.2613 2.46929,-0.3458 1.40306,-0.5757 -2.03882,-4.4209 -4.21639,-8.776 -6.02993,-13.2992 -0.55811,-1.392 -1.06511,-2.804 -1.59767,-4.2059 -1.84485,-5.1264 -3.49252,-10.3304 -4.9112,-15.5915 -0.20777,-0.7064 -0.42387,-1.4103 -0.64277,-2.1133 -0.51162,-1.64338 1.81243,-2.36693 2.32405,-0.7236 l 0,0 c 0.22818,0.733 0.45364,1.4668 0.66899,2.2037 1.39519,5.1836 3.0225,10.3095 4.83653,15.3607 1.48604,3.9165 1.56582,4.2808 3.24083,8.0899 0.90331,2.0541 1.96727,4.2559 2.93916,6.2927 0.33658,0.7054 0.70033,1.3984 1.01079,2.1157 0.21809,0.5039 0.38219,1.0295 0.57329,1.5442 -0.006,0.4905 0.0928,0.9933 -0.0167,1.4714 -0.0713,0.3115 -0.29734,0.5724 -0.50669,0.8139 -0.82104,0.9469 -2.2023,1.0408 -3.35286,1.0503 -3.92785,-0.099 -7.85341,-0.2808 -11.77334,-0.5506 -2.67785,-0.198 -5.36001,-0.3838 -8.03282,-0.6435 -1.14187,-0.111 -2.81522,-0.2679 -3.95416,-0.5938 -0.49925,-0.1429 -0.96524,-0.3833 -1.44786,-0.575 -0.34749,-0.4042 -0.81151,-0.7321 -1.04245,-1.2125 -0.29758,-0.619 -0.0183,-1.3781 0.15404,-1.9658 0.41596,-1.4182 0.90804,-2.8135 1.41803,-4.2 2.03988,-5.6262 4.12794,-11.2391 6.47935,-16.7439 1.41763,-3.5685 2.80598,-7.1637 4.65141,-10.5391 1.0327,-1.3769 2.97996,0.084 1.94727,1.4605 z"
       id="path4290"
       style="opacity:1;fill:#000000;fill-opacity:1;stroke:none;stroke-width:2;stroke-linecap:round;stroke-linejoin:round;stroke-miterlimit:4;stroke-dasharray:none;stroke-opacity:1" />
    <path
       inkscape:connector-curvature="0"
       d="m 250.30426,994.68966 c 0.2416,5.32064 -0.737,10.55924 -1.62371,15.77914 -1.35842,7.3735 -2.97101,14.6972 -4.75954,21.9773 -0.11961,0.5328 -0.61959,2.1385 -0.40537,2.889 0.0408,0.143 0.23343,0.197 0.37553,0.2409 0.24933,0.077 0.51646,0.075 0.7745,0.1144 2.69575,0.4072 1.11036,0.2235 4.39803,0.46 5.66445,0.2203 11.33515,0.1304 17.00186,0.067 2.64348,-0.1321 5.30851,0.083 7.94811,-0.1223 -0.49431,-0.4869 -0.68528,0.6789 -1.01449,0.4963 -0.37059,-0.2056 -0.45571,-0.7149 -0.69787,-1.0627 -0.44818,-0.6436 -0.91617,-1.2731 -1.37274,-1.9109 -2.12975,-2.9744 -1.8434,-2.5801 -4.08158,-5.7462 -3.38222,-4.7655 -6.58358,-9.6562 -9.26312,-14.8557 -1.34321,-2.6065 -2.29294,-4.7594 -3.50432,-7.4077 -1.8182,-3.9406 -3.17358,-8.06452 -4.69093,-12.12328 -0.60264,-1.6122 1.67735,-2.46446 2.27999,-0.85226 l 0,0 c 1.49682,4.00479 2.83302,8.07414 4.62454,11.96324 1.17881,2.5784 2.12597,4.7244 3.43043,7.2596 2.63234,5.1159 5.78477,9.9237 9.11102,14.611 2.80573,3.9691 1.4546,2.0684 4.07281,5.734 0.49064,0.6869 1.00965,1.3544 1.47192,2.0607 0.71021,1.0852 1.53484,2.1227 0.90965,3.549 -0.17499,0.3992 -0.73111,0.4748 -1.09666,0.7123 -2.69243,0.1893 -5.40335,0.016 -8.09935,0.1287 -5.73585,0.065 -11.47589,0.156 -17.2093,-0.073 -2.09582,-0.1598 -5.42781,-0.064 -7.06656,-1.7277 -1.35095,-1.3717 -0.60047,-3.4339 -0.25989,-4.9846 1.77462,-7.223 3.37475,-14.489 4.72365,-21.8043 0.86451,-5.0856 1.8305,-10.18725 1.58931,-15.37143 0,-1.72115 2.43408,-1.72115 2.43408,0 z"
       id="path4292"
       style="opacity:1;fill:#000000;fill-opacity:1;stroke:none;stroke-width:2;stroke-linecap:round;stroke-linejoin:round;stroke-miterlimit:4;stroke-dasharray:none;stroke-opacity:1" />
    <path
       inkscape:connector-curvature="0"
       d="m 208.56594,993.53679 c -2.19091,1.87237 -4.33006,3.79654 -6.35313,5.84972 -1.94603,2.14509 -3.96243,4.22309 -5.79271,6.46829 -0.0748,0.1267 -0.17273,0.2424 -0.22428,0.3803 -0.0327,0.087 0.16718,-0.1322 0.16646,-0.2257 -0.002,-0.2902 -0.26775,-0.578 -0.1748,-0.8529 0.0488,-0.1445 0.30487,0.01 0.45703,0.018 2.15987,0.1371 -0.0228,0.043 2.67568,0.1335 3.4861,0.091 6.95596,0.4381 10.41801,0.8357 0.93629,0.028 1.83941,0.3971 2.76649,0.4764 0.0736,0.01 0.21885,0.016 0.21391,-0.058 -0.005,-0.076 -0.14992,-0.027 -0.22129,-0.053 -0.0489,-0.018 -0.0908,-0.05 -0.13617,-0.076 -0.0495,-0.7277 -0.0731,-1.2498 -0.21364,-2.0252 -0.65266,-3.6021 -1.72721,-7.14651 -2.61459,-10.69476 -0.2124,-0.93186 -0.42481,-1.86371 -0.63722,-2.79556 -0.38235,-1.67814 1.99091,-2.21887 2.37326,-0.54072 l 0,0 c 0.20844,0.91525 0.41688,1.8305 0.62532,2.74576 0.72669,2.90603 1.51363,5.79908 2.18108,8.71958 0.27843,1.2183 0.67637,2.8097 0.66981,4.1049 -0.003,0.5208 -0.13,1.0336 -0.195,1.5504 -0.22138,0.3367 -0.36486,0.7403 -0.66412,1.0102 -1.17234,1.0573 -3.08135,0.1715 -4.42555,0.053 -3.39748,-0.3902 -6.80248,-0.7326 -10.22364,-0.8212 -0.74204,-0.026 -3.64492,-0.017 -4.27714,-0.4826 -1.33382,-0.982 -1.1995,-1.8231 -0.42624,-2.9413 1.87894,-2.3049 3.94611,-4.44041 5.94659,-6.63983 2.0732,-2.09894 4.25788,-4.07344 6.50181,-5.98833 1.30679,-1.12011 2.89087,0.72798 1.58407,1.84809 z"
       id="path4294"
       style="opacity:1;fill:#000000;fill-opacity:1;stroke:none;stroke-width:2;stroke-linecap:round;stroke-linejoin:round;stroke-miterlimit:4;stroke-dasharray:none;stroke-opacity:1" />
    <path
       style="opacity:1;fill:#000000;fill-opacity:1;stroke:none;stroke-width:2;stroke-linecap:round;stroke-linejoin:round;stroke-miterlimit:4;stroke-dasharray:none;stroke-opacity:1"
       id="path4306"
       d="m 228.80325,964.89843 c -0.0826,-1.87886 0.16859,-3.72681 0.63072,-5.54301 0.0854,-0.29176 0.1707,-0.58351 0.25605,-0.87527 0.48444,-1.65157 2.82012,-0.96647 2.33567,0.6851 l 0,0 c -0.0783,0.26613 -0.15657,0.53226 -0.23486,0.79839 -0.42392,1.61522 -0.6277,3.26206 -0.55351,4.93479 0,1.72115 -2.43407,1.72115 -2.43407,0 z"
       inkscape:connector-curvature="0" />
    <circle
       style="opacity:1;fill:none;fill-opacity:0.50196078;stroke:#000000;stroke-width:2;stroke-linecap:round;stroke-linejoin:round;stroke-miterlimit:4;stroke-dasharray:none;stroke-opacity:1"
       id="circle4308"
       cx="231.64301"
       cy="948.10254"
       r="10.141988" />
    <circle
       r="10.141988"
       cy="903.07214"
       cx="235.90263"
       id="circle4312"
       style="opacity:1;fill:none;fill-opacity:0.50196078;stroke:#000000;stroke-width:2;stroke-linecap:round;stroke-linejoin:round;stroke-miterlimit:4;stroke-dasharray:none;stroke-opacity:1" />
    <path
       style="opacity:1;fill:#000000;fill-opacity:1;stroke:none;stroke-width:2;stroke-linecap:round;stroke-linejoin:round;stroke-miterlimit:4;stroke-dasharray:none;stroke-opacity:1"
       id="path4318"
       d="m 235.70184,923.57118 c -0.10218,1.06096 -0.20436,2.12192 -0.30655,3.18287 -0.0381,0.39604 -0.0763,0.79208 -0.11442,1.1881 -0.16501,1.71323 -2.58788,1.47987 -2.42287,-0.23335 l 0,0 c 0.0381,-0.39603 0.0763,-0.79206 0.11443,-1.1881 0.10218,-1.06095 0.20436,-2.12191 0.30654,-3.18287 0.16501,-1.71323 2.58788,-1.47987 2.42287,0.23335 z"
       inkscape:connector-curvature="0" />
    <path
       inkscape:connector-curvature="0"
       d="m 234.89048,932.49613 c -0.10218,1.06096 -0.20436,2.12192 -0.30655,3.18287 -0.0381,0.39604 -0.0763,0.79208 -0.11442,1.1881 -0.16501,1.71323 -2.58788,1.47987 -2.42287,-0.23335 l 0,0 c 0.0381,-0.39603 0.0763,-0.79206 0.11443,-1.1881 0.10218,-1.06095 0.20436,-2.12191 0.30654,-3.18287 0.16501,-1.71323 2.58788,-1.47987 2.42287,0.23335 z"
       id="path4320"
       style="opacity:1;fill:#000000;fill-opacity:1;stroke:none;stroke-width:2;stroke-linecap:round;stroke-linejoin:round;stroke-miterlimit:4;stroke-dasharray:none;stroke-opacity:1" />
    <path
       style="opacity:0.4;fill:#000000;fill-opacity:1;stroke:none;stroke-width:2;stroke-linecap:round;stroke-linejoin:round;stroke-miterlimit:4;stroke-dasharray:none;stroke-opacity:1"
       id="path4322"
       d="m 256.66385,907.40931 c -0.0568,1.49756 -0.19232,2.98472 -0.38216,4.47074 -0.3596,2.24423 -0.91154,4.46011 -1.59862,6.62565 -0.86123,2.59583 -1.34182,5.292 -1.73123,7.9924 -0.3124,2.7752 -0.75288,5.55878 -0.49049,8.35225 0.23364,1.3905 0.86639,2.53192 1.89653,3.46922 1.1527,0.91422 1.17035,1.16012 0.30886,2.60014 -0.10157,0.16978 -0.33241,0.21674 -0.48257,0.34557 -1.12189,1.23824 -1.40535,3.05199 -1.73803,4.62816 -0.7601,4.73559 -1.01787,9.53616 -1.33353,14.31711 -0.28192,4.78328 -0.52983,9.57326 -1.26716,14.31191 -0.23504,1.66758 -0.80356,3.18074 -1.661,4.61462 -0.89483,1.47024 -2.97408,0.20476 -2.07924,-1.26549 l 0,0 c 0.71622,-1.1483 1.14083,-2.37543 1.33532,-3.72466 0.73135,-4.66648 0.95922,-9.38638 1.24329,-14.09675 0.32345,-4.89758 0.58682,-9.81606 1.38189,-14.6649 0.46086,-2.13745 0.92993,-4.47055 2.60088,-6.02307 1.009,-0.77821 0.27965,-0.37429 0.25213,0.72727 -0.006,0.2433 0.71867,0.79883 -0.21759,0.0133 -1.49728,-1.41112 -2.33574,-2.984 -2.66411,-5.03485 -0.25738,-2.98519 0.14349,-5.95395 0.50562,-8.91805 0.41035,-2.83298 0.91854,-5.66057 1.82141,-8.38423 0.64971,-2.0226 1.15523,-4.09847 1.50305,-6.1943 0.18316,-1.4311 0.31276,-2.86294 0.36674,-4.30536 0.10131,-1.71816 2.53116,-1.57488 2.42985,0.14328 z"
       inkscape:connector-curvature="0" />
    <text
       xml:space="preserve"
       style="font-style:normal;font-weight:normal;font-size:40px;line-height:125%;font-family:sans-serif;letter-spacing:0px;word-spacing:0px;opacity:0.4;fill:#000000;fill-opacity:1;stroke:none;stroke-width:1px;stroke-linecap:butt;stroke-linejoin:miter;stroke-opacity:1"
       x="260.24338"
       y="946.27698"
       id="text4324"
       sodipodi:linespacing="125%"><tspan
         sodipodi:role="line"
         id="tspan4326"
         x="260.24338"
         y="946.27698"
         style="font-style:italic;font-variant:normal;font-weight:normal;font-stretch:normal;font-size:22.5px;font-family:sans-serif;-inkscape-font-specification:'sans-serif Italic'">d</tspan></text>
    <circle
       style="opacity:1;fill:none;fill-opacity:0.50196078;stroke:#ff0000;stroke-width:2;stroke-linecap:round;stroke-linejoin:round;stroke-miterlimit:4;stroke-dasharray:none;stroke-opacity:1"
       id="path4136"
       cx="78.701828"
       cy="881.16541"
       r="10.141988" />
    <circle
       r="10.141988"
       cy="976.09442"
       cx="228.80325"
       id="circle4280"
       style="opacity:1;fill:none;fill-opacity:0.50196078;stroke:#ff0000;stroke-width:2;stroke-linecap:round;stroke-linejoin:round;stroke-miterlimit:4;stroke-dasharray:none;stroke-opacity:1" />
    <path
       style="opacity:0.4;fill:#000000;fill-opacity:1;stroke:none;stroke-width:1;stroke-linecap:round;stroke-linejoin:round;stroke-miterlimit:4;stroke-dasharray:none;stroke-opacity:1"
       id="path4338"
       d="m 232.80492,897.98982 c -0.60321,0.78415 -1.15867,1.6041 -1.74625,2.39958 -0.40793,0.6728 -0.82977,1.33132 -1.29326,1.96937 -0.32945,0.6084 -0.68332,1.19803 -1.06531,1.77581 -0.61162,0.76964 -0.33406,1.05728 -2.16926,-1.14828 -0.0293,-0.0353 0.47471,-0.43764 0.54357,-0.49403 0.52359,-0.62359 1.23515,-1.02313 1.8882,-1.48836 0.4878,-0.47857 1.16385,-0.75537 1.6352,-1.24495 0.5656,-0.58593 1.38405,-0.7632 2.06133,-1.16654 0.55222,-0.32027 1.1417,-0.56891 1.74725,-0.76495 1.46166,-0.13068 2.14779,0.78423 1.95208,2.18015 -0.23476,0.92915 -0.75584,1.73968 -1.32727,2.49525 -0.4711,0.59775 -0.92448,1.19902 -1.42341,1.77425 -0.33681,0.43528 -0.61275,0.90314 -0.8849,1.38112 -0.99389,1.37375 -0.15389,1.02174 -2.65217,-0.3468 0.6533,-0.78488 1.24161,-1.62183 1.97937,-2.3333 0.58925,-0.58862 1.14757,-1.19032 1.763,-1.75134 0.53271,-0.62587 1.2714,-0.9557 1.99992,-1.29398 0.64824,-0.36628 1.26813,-0.74595 1.97075,-1.00321 0.98321,-0.41509 1.35842,-0.60759 2.45097,-0.33714 1.73096,0.94517 0.55396,2.68478 -0.16101,3.86339 -0.65696,1.10949 -1.50626,2.08002 -2.26674,3.11571 -0.51994,0.68371 -0.94772,1.42879 -1.45102,2.12327 -0.35532,0.43327 -0.69927,0.87063 -0.9002,1.39453 -0.21676,0.40545 -0.72187,1.55106 -1.35898,1.39106 -1.76515,-0.44332 -1.49016,-0.83398 -1.36448,-1.86754 0.75976,-1.26353 1.96068,-2.20093 3.14713,-3.04889 0.85907,-0.54469 1.76112,-1.00642 2.61058,-1.56673 0.66885,-0.45615 1.39046,-0.73567 2.18567,-0.86575 1.37352,-0.16729 2.13812,0.56223 2.54695,1.79581 0.25597,1.23372 -0.46063,2.10035 -1.34159,2.84219 -0.42174,0.46534 -0.85856,0.91387 -1.32693,1.33245 -1.29441,1.1344 -2.89869,-0.69619 -1.60427,-1.83058 l 0,0 c 0.49572,-0.41831 0.89934,-0.92404 1.3699,-1.36925 0.18009,-0.14905 0.47162,-0.41627 0.50299,-0.39016 0.36858,0.30685 -0.12915,0.0133 0.0723,0.12747 -0.0113,-0.0495 -0.0646,-0.10817 -0.0339,-0.1486 0.0456,-0.0599 0.13227,0.0841 0.20734,0.0892 0.0686,0.005 0.26015,-0.0316 0.19747,-0.0599 -0.068,-0.0308 -0.14881,0.0117 -0.22322,0.0176 -0.45538,0.059 -0.83216,0.23234 -1.21616,0.49378 -0.82889,0.54288 -1.69706,1.01117 -2.54492,1.52203 -0.52793,0.36491 -1.00408,0.77377 -1.48736,1.19596 -0.13467,0.11764 -0.27136,0.23321 -0.40055,0.35684 -0.10867,0.10397 -0.17683,0.26054 -0.3125,0.32544 -0.0527,0.0252 -0.001,-0.1168 -0.002,-0.1752 -0.10968,-0.71893 -0.0637,-0.8891 -1.46574,-1.1619 -0.2686,-0.0523 -0.43597,0.33202 -0.66764,0.47764 -0.0799,0.0502 0.29899,-0.36046 0.25084,-0.39048 0.29067,-0.7055 0.69487,-1.34045 1.19166,-1.92061 0.50924,-0.6935 0.93371,-1.44613 1.45676,-2.13112 0.71904,-0.97763 1.52079,-1.89393 2.14746,-2.93743 0.10828,-0.1782 0.4466,-0.73032 0.56894,-0.94692 0.0514,-0.091 0.044,-0.3013 0.14578,-0.27763 6.9e-4,1.7e-4 0.23507,0.89763 0.63684,0.88981 0.0893,0.005 0.17851,0.0152 0.26799,0.0153 0.0181,1e-5 0.0106,-0.0591 -0.007,-0.0538 -0.34673,0.1053 -0.66351,0.31113 -1.01463,0.40646 -0.63759,0.20571 -1.15008,0.64316 -1.75834,0.91707 -0.53655,0.24558 -1.00693,0.41368 -1.38601,0.88815 -0.60621,0.54622 -1.14201,1.15023 -1.7291,1.72005 -0.59909,0.53885 -1.00132,1.24561 -1.56378,1.81911 -0.75699,-0.29868 -1.55215,-0.51456 -2.27097,-0.89606 -0.104,-0.0552 0.63664,-1.13249 0.73047,-1.23056 0.35454,-0.61091 0.71742,-1.21243 1.15931,-1.76575 0.46622,-0.53292 0.88353,-1.0957 1.32353,-1.65185 0.34319,-0.44363 0.65546,-0.91465 0.86446,-1.43799 0.0325,-0.0618 0.13381,0.29704 0.22873,0.37383 0.31839,0.25759 0.49861,0.30648 0.88074,0.20742 -0.41008,0.16038 -0.84749,0.30707 -1.22953,0.55118 -0.52678,0.28292 -1.12328,0.46628 -1.59331,0.82832 -0.5939,0.52469 -1.27383,0.93579 -1.88235,1.44456 -0.6127,0.42859 -1.2576,0.80455 -1.74961,1.38303 -0.0636,0.0519 -0.11775,0.11823 -0.19074,0.1558 -0.0296,0.0153 0.0793,-0.0644 0.0529,-0.0848 -1.66341,-1.28652 -2.54844,-0.8129 -1.80599,-1.65818 0.403,-0.60597 0.75425,-1.23637 1.12554,-1.86249 0.47042,-0.64524 0.88351,-1.31553 1.30871,-1.99035 0.61097,-0.81293 1.17392,-1.66344 1.7983,-2.46703 1.07519,-1.34399 2.97589,0.17657 1.90069,1.52056 z"
       inkscape:connector-curvature="0" />
    <path
       inkscape:connector-curvature="0"
       d="m 229.55948,942.20888 c -0.60321,0.78415 -1.15867,1.6041 -1.74625,2.39958 -0.40793,0.6728 -0.82977,1.33132 -1.29326,1.96937 -0.32945,0.6084 -0.68332,1.19803 -1.06531,1.77581 -0.61162,0.76964 -0.33406,1.05728 -2.16926,-1.14828 -0.0293,-0.0353 0.47471,-0.43764 0.54357,-0.49403 0.52359,-0.62359 1.23515,-1.02313 1.8882,-1.48836 0.4878,-0.47857 1.16385,-0.75537 1.6352,-1.24495 0.5656,-0.58593 1.38405,-0.7632 2.06133,-1.16654 0.55222,-0.32027 1.1417,-0.56891 1.74725,-0.76495 1.46166,-0.13068 2.14779,0.78423 1.95208,2.18015 -0.23476,0.92915 -0.75584,1.73968 -1.32727,2.49525 -0.4711,0.59775 -0.92448,1.19902 -1.42341,1.77425 -0.33681,0.43528 -0.61275,0.90314 -0.8849,1.38112 -0.99389,1.37375 -0.15389,1.02174 -2.65217,-0.3468 0.6533,-0.78488 1.24161,-1.62183 1.97937,-2.3333 0.58925,-0.58862 1.14757,-1.19032 1.763,-1.75134 0.53271,-0.62587 1.2714,-0.9557 1.99992,-1.29398 0.64824,-0.36628 1.26813,-0.74595 1.97075,-1.00321 0.98321,-0.41509 1.35842,-0.60759 2.45097,-0.33714 1.73096,0.94517 0.55396,2.68478 -0.16101,3.86339 -0.65696,1.10949 -1.50626,2.08002 -2.26674,3.11571 -0.51994,0.68371 -0.94772,1.42879 -1.45102,2.12327 -0.35532,0.43327 -0.69927,0.87063 -0.9002,1.39453 -0.21676,0.40545 -0.72187,1.55106 -1.35898,1.39106 -1.76515,-0.44332 -1.49016,-0.83398 -1.36448,-1.86754 0.75976,-1.26353 1.96068,-2.20093 3.14713,-3.04889 0.85907,-0.54469 1.76112,-1.00642 2.61058,-1.56673 0.66885,-0.45615 1.39046,-0.73567 2.18567,-0.86575 1.37352,-0.16729 2.13812,0.56223 2.54695,1.79581 0.25597,1.23372 -0.46063,2.10035 -1.34159,2.84219 -0.42174,0.46534 -0.85856,0.91387 -1.32693,1.33245 -1.29441,1.1344 -2.89869,-0.69619 -1.60427,-1.83058 l 0,0 c 0.49572,-0.41831 0.89934,-0.92404 1.3699,-1.36925 0.18009,-0.14905 0.47162,-0.41627 0.50299,-0.39016 0.36858,0.30685 -0.12915,0.0133 0.0723,0.12747 -0.0113,-0.0495 -0.0646,-0.10817 -0.0339,-0.1486 0.0456,-0.0599 0.13227,0.0841 0.20734,0.0892 0.0686,0.005 0.26015,-0.0316 0.19747,-0.0599 -0.068,-0.0308 -0.14881,0.0117 -0.22322,0.0176 -0.45538,0.059 -0.83216,0.23234 -1.21616,0.49378 -0.82889,0.54288 -1.69706,1.01117 -2.54492,1.52203 -0.52793,0.36491 -1.00408,0.77377 -1.48736,1.19596 -0.13467,0.11764 -0.27136,0.23321 -0.40055,0.35684 -0.10867,0.10397 -0.17683,0.26054 -0.3125,0.32544 -0.0527,0.0252 -0.001,-0.1168 -0.002,-0.1752 -0.10968,-0.71893 -0.0637,-0.8891 -1.46574,-1.1619 -0.2686,-0.0523 -0.43597,0.33202 -0.66764,0.47764 -0.0799,0.0502 0.29899,-0.36046 0.25084,-0.39048 0.29067,-0.7055 0.69487,-1.34045 1.19166,-1.92061 0.50924,-0.6935 0.93371,-1.44613 1.45676,-2.13112 0.71904,-0.97763 1.52079,-1.89393 2.14746,-2.93743 0.10828,-0.1782 0.4466,-0.73032 0.56894,-0.94692 0.0514,-0.091 0.044,-0.3013 0.14578,-0.27763 6.9e-4,1.7e-4 0.23507,0.89763 0.63684,0.88981 0.0893,0.005 0.17851,0.0152 0.26799,0.0153 0.0181,10e-6 0.0106,-0.0591 -0.007,-0.0538 -0.34673,0.1053 -0.66351,0.31113 -1.01463,0.40646 -0.63759,0.20571 -1.15008,0.64316 -1.75834,0.91707 -0.53655,0.24558 -1.00693,0.41368 -1.38601,0.88815 -0.60621,0.54622 -1.14201,1.15023 -1.7291,1.72005 -0.59909,0.53885 -1.00132,1.24561 -1.56378,1.81911 -0.75699,-0.29868 -1.55215,-0.51456 -2.27097,-0.89606 -0.104,-0.0552 0.63664,-1.13249 0.73047,-1.23056 0.35454,-0.61091 0.71742,-1.21243 1.15931,-1.76575 0.46622,-0.53292 0.88353,-1.0957 1.32353,-1.65185 0.34319,-0.44363 0.65546,-0.91465 0.86446,-1.43799 0.0325,-0.0618 0.13381,0.29704 0.22873,0.37383 0.31839,0.25759 0.49861,0.30648 0.88074,0.20742 -0.41008,0.16038 -0.84749,0.30707 -1.22953,0.55118 -0.52678,0.28292 -1.12328,0.46628 -1.59331,0.82832 -0.5939,0.52469 -1.27383,0.93579 -1.88235,1.44456 -0.6127,0.42859 -1.2576,0.80455 -1.74961,1.38303 -0.0636,0.0519 -0.11775,0.11823 -0.19074,0.1558 -0.0296,0.0153 0.0793,-0.0644 0.0529,-0.0848 -1.66341,-1.28652 -2.54844,-0.8129 -1.80599,-1.65818 0.403,-0.60597 0.75425,-1.23637 1.12554,-1.86249 0.47042,-0.64524 0.88351,-1.31553 1.30871,-1.99035 0.61097,-0.81293 1.17392,-1.66344 1.7983,-2.46703 1.07519,-1.34399 2.97589,0.17657 1.90069,1.52056 z"
       id="path4340"
       style="opacity:0.4;fill:#000000;fill-opacity:1;stroke:none;stroke-width:1;stroke-linecap:round;stroke-linejoin:round;stroke-miterlimit:4;stroke-dasharray:none;stroke-opacity:1" />
    <path
       style="opacity:0.4;fill:#000000;fill-opacity:1;stroke:none;stroke-width:1;stroke-linecap:round;stroke-linejoin:round;stroke-miterlimit:4;stroke-dasharray:none;stroke-opacity:1"
       id="path4342"
       d="m 226.71972,970.60645 c -0.60321,0.78415 -1.15867,1.6041 -1.74625,2.39958 -0.40793,0.6728 -0.82977,1.33132 -1.29326,1.96937 -0.32945,0.6084 -0.68332,1.19803 -1.06531,1.77581 -0.61162,0.76964 -0.33406,1.05728 -2.16926,-1.14828 -0.0293,-0.0353 0.47471,-0.43764 0.54357,-0.49403 0.52359,-0.62359 1.23515,-1.02313 1.8882,-1.48836 0.4878,-0.47857 1.16385,-0.75537 1.6352,-1.24495 0.5656,-0.58593 1.38405,-0.7632 2.06133,-1.16654 0.55222,-0.32027 1.1417,-0.56891 1.74725,-0.76495 1.46166,-0.13068 2.14779,0.78423 1.95208,2.18015 -0.23476,0.92915 -0.75584,1.73968 -1.32727,2.49525 -0.4711,0.59775 -0.92448,1.19902 -1.42341,1.77425 -0.33681,0.43528 -0.61275,0.90314 -0.8849,1.38112 -0.99389,1.37375 -0.15389,1.02174 -2.65217,-0.3468 0.6533,-0.78488 1.24161,-1.62183 1.97937,-2.3333 0.58925,-0.58862 1.14757,-1.19032 1.763,-1.75134 0.53271,-0.62587 1.2714,-0.9557 1.99992,-1.29398 0.64824,-0.36628 1.26813,-0.74595 1.97075,-1.00321 0.98321,-0.41509 1.35842,-0.60759 2.45097,-0.33714 1.73096,0.94517 0.55396,2.68478 -0.16101,3.86339 -0.65696,1.10949 -1.50626,2.08002 -2.26674,3.11571 -0.51994,0.68371 -0.94772,1.42879 -1.45102,2.12327 -0.35532,0.43327 -0.69927,0.87063 -0.9002,1.39453 -0.21676,0.40545 -0.72187,1.55106 -1.35898,1.39106 -1.76515,-0.44332 -1.49016,-0.83398 -1.36448,-1.86754 0.75976,-1.26353 1.96068,-2.20093 3.14713,-3.04889 0.85907,-0.54469 1.76112,-1.00642 2.61058,-1.56673 0.66885,-0.45615 1.39046,-0.73567 2.18567,-0.86575 1.37352,-0.16729 2.13812,0.56223 2.54695,1.79581 0.25597,1.23372 -0.46063,2.10035 -1.34159,2.84219 -0.42174,0.46534 -0.85856,0.91387 -1.32693,1.33245 -1.29441,1.1344 -2.89869,-0.69619 -1.60427,-1.83058 l 0,0 c 0.49572,-0.41831 0.89934,-0.92404 1.3699,-1.36925 0.18009,-0.14905 0.47162,-0.41627 0.50299,-0.39016 0.36858,0.30685 -0.12915,0.0133 0.0723,0.12747 -0.0113,-0.0495 -0.0646,-0.10817 -0.0339,-0.1486 0.0456,-0.0599 0.13227,0.0841 0.20734,0.0892 0.0686,0.005 0.26015,-0.0316 0.19747,-0.0599 -0.068,-0.0308 -0.14881,0.0117 -0.22322,0.0176 -0.45538,0.059 -0.83216,0.23234 -1.21616,0.49378 -0.82889,0.54288 -1.69706,1.01117 -2.54492,1.52203 -0.52793,0.36491 -1.00408,0.77377 -1.48736,1.19596 -0.13467,0.11764 -0.27136,0.23321 -0.40055,0.35684 -0.10867,0.10397 -0.17683,0.26054 -0.3125,0.32544 -0.0527,0.0252 -10e-4,-0.1168 -0.002,-0.1752 -0.10968,-0.71893 -0.0637,-0.8891 -1.46574,-1.1619 -0.2686,-0.0523 -0.43597,0.33202 -0.66764,0.47764 -0.0799,0.0502 0.29899,-0.36046 0.25084,-0.39048 0.29067,-0.7055 0.69487,-1.34045 1.19166,-1.92061 0.50924,-0.6935 0.93371,-1.44613 1.45676,-2.13112 0.71904,-0.97763 1.52079,-1.89393 2.14746,-2.93743 0.10828,-0.1782 0.4466,-0.73032 0.56894,-0.94692 0.0514,-0.091 0.044,-0.3013 0.14578,-0.27763 6.9e-4,1.7e-4 0.23507,0.89763 0.63684,0.88981 0.0893,0.005 0.17851,0.0152 0.26799,0.0153 0.0181,1e-5 0.0106,-0.0591 -0.007,-0.0538 -0.34673,0.1053 -0.66351,0.31113 -1.01463,0.40646 -0.63759,0.20571 -1.15008,0.64316 -1.75834,0.91707 -0.53655,0.24558 -1.00693,0.41368 -1.38601,0.88815 -0.60621,0.54622 -1.14201,1.15023 -1.7291,1.72005 -0.59909,0.53885 -1.00132,1.24561 -1.56378,1.81911 -0.75699,-0.29868 -1.55215,-0.51456 -2.27097,-0.89606 -0.104,-0.0552 0.63664,-1.13249 0.73047,-1.23056 0.35454,-0.61091 0.71742,-1.21243 1.15931,-1.76575 0.46622,-0.53292 0.88353,-1.0957 1.32353,-1.65185 0.34319,-0.44363 0.65546,-0.91465 0.86446,-1.43799 0.0325,-0.0618 0.13381,0.29704 0.22873,0.37383 0.31839,0.25759 0.49861,0.30648 0.88074,0.20742 -0.41008,0.16038 -0.84749,0.30707 -1.22953,0.55118 -0.52678,0.28292 -1.12328,0.46628 -1.59331,0.82832 -0.5939,0.52469 -1.27383,0.93579 -1.88235,1.44456 -0.6127,0.42859 -1.2576,0.80455 -1.74961,1.38303 -0.0636,0.0519 -0.11775,0.11823 -0.19074,0.1558 -0.0296,0.0153 0.0793,-0.0644 0.0529,-0.0848 -1.66341,-1.28652 -2.54844,-0.8129 -1.80599,-1.65818 0.403,-0.60597 0.75425,-1.23637 1.12554,-1.86249 0.47042,-0.64524 0.88351,-1.31553 1.30871,-1.99035 0.61097,-0.81293 1.17392,-1.66344 1.7983,-2.46703 1.07519,-1.34399 2.97589,0.17657 1.90069,1.52056 z"
       inkscape:connector-curvature="0" />
    <path
       inkscape:connector-curvature="0"
       d="m 221.85157,1019.6936 c -0.60321,0.7842 -1.15867,1.6041 -1.74625,2.3997 -0.40793,0.6728 -0.82977,1.3313 -1.29326,1.9693 -0.32945,0.6084 -0.68332,1.1981 -1.06531,1.7758 -0.61162,0.7697 -0.33406,1.0573 -2.16926,-1.1482 -0.0293,-0.035 0.47471,-0.4377 0.54357,-0.4941 0.52359,-0.6236 1.23515,-1.0231 1.8882,-1.4883 0.4878,-0.4786 1.16385,-0.7554 1.6352,-1.245 0.5656,-0.586 1.38405,-0.7632 2.06133,-1.1666 0.55222,-0.3202 1.1417,-0.5689 1.74725,-0.7649 1.46166,-0.1307 2.14779,0.7842 1.95208,2.1801 -0.23476,0.9292 -0.75584,1.7398 -1.32727,2.4953 -0.4711,0.5978 -0.92448,1.1991 -1.42341,1.7743 -0.33681,0.4353 -0.61275,0.9031 -0.8849,1.3811 -0.99389,1.3738 -0.15389,1.0217 -2.65217,-0.3468 0.6533,-0.7849 1.24161,-1.6218 1.97937,-2.3333 0.58925,-0.5886 1.14757,-1.1903 1.763,-1.7513 0.53271,-0.6259 1.2714,-0.9557 1.99992,-1.2941 0.64824,-0.3662 1.26813,-0.7459 1.97075,-1.0032 0.98321,-0.4151 1.35842,-0.6076 2.45097,-0.3371 1.73096,0.9452 0.55396,2.6848 -0.16101,3.8634 -0.65696,1.1095 -1.50626,2.08 -2.26674,3.1157 -0.51994,0.6837 -0.94772,1.4288 -1.45102,2.1233 -0.35532,0.4333 -0.69927,0.8706 -0.9002,1.3945 -0.21676,0.4055 -0.72187,1.5511 -1.35898,1.3911 -1.76515,-0.4433 -1.49016,-0.834 -1.36448,-1.8675 0.75976,-1.2636 1.96068,-2.201 3.14713,-3.0489 0.85907,-0.5447 1.76112,-1.0065 2.61058,-1.5668 0.66885,-0.4561 1.39046,-0.7356 2.18567,-0.8657 1.37352,-0.1673 2.13812,0.5622 2.54695,1.7958 0.25597,1.2337 -0.46063,2.1003 -1.34159,2.8422 -0.42174,0.4653 -0.85856,0.9139 -1.32693,1.3324 -1.29441,1.1344 -2.89869,-0.6962 -1.60427,-1.8305 l 0,0 c 0.49572,-0.4184 0.89934,-0.9241 1.3699,-1.3693 0.18009,-0.149 0.47162,-0.4163 0.50299,-0.3902 0.36858,0.3069 -0.12915,0.013 0.0723,0.1275 -0.0113,-0.049 -0.0646,-0.1082 -0.0339,-0.1486 0.0456,-0.06 0.13227,0.084 0.20734,0.089 0.0686,0 0.26015,-0.032 0.19747,-0.06 -0.068,-0.031 -0.14881,0.012 -0.22322,0.018 -0.45538,0.059 -0.83216,0.2324 -1.21616,0.4938 -0.82889,0.5429 -1.69706,1.0112 -2.54492,1.522 -0.52793,0.3649 -1.00408,0.7738 -1.48736,1.196 -0.13467,0.1176 -0.27136,0.2332 -0.40055,0.3568 -0.10867,0.104 -0.17683,0.2606 -0.3125,0.3255 -0.0527,0.025 -0.001,-0.1168 -0.002,-0.1752 -0.10968,-0.719 -0.0637,-0.8891 -1.46574,-1.1619 -0.2686,-0.052 -0.43597,0.332 -0.66764,0.4776 -0.0799,0.05 0.29899,-0.3605 0.25084,-0.3905 0.29067,-0.7055 0.69487,-1.3404 1.19166,-1.9206 0.50924,-0.6935 0.93371,-1.4461 1.45676,-2.1311 0.71904,-0.9776 1.52079,-1.8939 2.14746,-2.9374 0.10828,-0.1782 0.4466,-0.7304 0.56894,-0.947 0.0514,-0.091 0.044,-0.3013 0.14578,-0.2776 6.9e-4,10e-5 0.23507,0.8976 0.63684,0.8898 0.0893,0.01 0.17851,0.015 0.26799,0.015 0.0181,0 0.0106,-0.059 -0.007,-0.054 -0.34673,0.1053 -0.66351,0.3112 -1.01463,0.4065 -0.63759,0.2057 -1.15008,0.6431 -1.75834,0.9171 -0.53655,0.2455 -1.00693,0.4136 -1.38601,0.8881 -0.60621,0.5462 -1.14201,1.1502 -1.7291,1.7201 -0.59909,0.5388 -1.00132,1.2456 -1.56378,1.8191 -0.75699,-0.2987 -1.55215,-0.5146 -2.27097,-0.8961 -0.104,-0.055 0.63664,-1.1325 0.73047,-1.2306 0.35454,-0.6109 0.71742,-1.2124 1.15931,-1.7657 0.46622,-0.5329 0.88353,-1.0957 1.32353,-1.6519 0.34319,-0.4436 0.65546,-0.9147 0.86446,-1.438 0.0325,-0.062 0.13381,0.297 0.22873,0.3738 0.31839,0.2577 0.49861,0.3066 0.88074,0.2075 -0.41008,0.1604 -0.84749,0.3071 -1.22953,0.5512 -0.52678,0.2829 -1.12328,0.4663 -1.59331,0.8283 -0.5939,0.5247 -1.27383,0.9358 -1.88235,1.4446 -0.6127,0.4286 -1.2576,0.8045 -1.74961,1.383 -0.0636,0.052 -0.11775,0.1182 -0.19074,0.1558 -0.0296,0.015 0.0793,-0.064 0.0529,-0.085 -1.66341,-1.2865 -2.54844,-0.8129 -1.80599,-1.6582 0.403,-0.606 0.75425,-1.2364 1.12554,-1.8625 0.47042,-0.6452 0.88351,-1.3156 1.30871,-1.9904 0.61097,-0.8129 1.17392,-1.6634 1.7983,-2.467 1.07519,-1.344 2.97589,0.1766 1.90069,1.5206 z"
       id="path4344"
       style="opacity:0.4;fill:#000000;fill-opacity:1;stroke:none;stroke-width:1;stroke-linecap:round;stroke-linejoin:round;stroke-miterlimit:4;stroke-dasharray:none;stroke-opacity:1" />
    <path
       style="opacity:0.4;fill:#000000;fill-opacity:1;stroke:none;stroke-width:1;stroke-linecap:round;stroke-linejoin:round;stroke-miterlimit:4;stroke-dasharray:none;stroke-opacity:1"
       id="path4346"
       d="m 251.87185,1020.505 c -0.60321,0.7841 -1.15867,1.6041 -1.74625,2.3997 -0.40793,0.6728 -0.82977,1.3313 -1.29326,1.9693 -0.32945,0.6084 -0.68332,1.1981 -1.06531,1.7758 -0.61162,0.7697 -0.33406,1.0573 -2.16926,-1.1482 -0.0293,-0.035 0.47471,-0.4377 0.54357,-0.4941 0.52359,-0.6236 1.23515,-1.0231 1.8882,-1.4883 0.4878,-0.4786 1.16385,-0.7554 1.6352,-1.245 0.5656,-0.586 1.38405,-0.7633 2.06133,-1.1666 0.55222,-0.3203 1.1417,-0.5689 1.74725,-0.765 1.46166,-0.1306 2.14779,0.7843 1.95208,2.1802 -0.23476,0.9292 -0.75584,1.7398 -1.32727,2.4953 -0.4711,0.5978 -0.92448,1.1991 -1.42341,1.7743 -0.33681,0.4353 -0.61275,0.9031 -0.8849,1.3811 -0.99389,1.3738 -0.15389,1.0217 -2.65217,-0.3468 0.6533,-0.7849 1.24161,-1.6218 1.97937,-2.3333 0.58925,-0.5886 1.14757,-1.1903 1.763,-1.7513 0.53271,-0.6259 1.2714,-0.9557 1.99992,-1.2941 0.64824,-0.3662 1.26813,-0.746 1.97075,-1.0032 0.98321,-0.4151 1.35842,-0.6076 2.45097,-0.3372 1.73096,0.9453 0.55396,2.6849 -0.16101,3.8635 -0.65696,1.1095 -1.50626,2.08 -2.26674,3.1157 -0.51994,0.6837 -0.94772,1.4288 -1.45102,2.1233 -0.35532,0.4333 -0.69927,0.8706 -0.9002,1.3945 -0.21676,0.4055 -0.72187,1.5511 -1.35898,1.3911 -1.76515,-0.4433 -1.49016,-0.834 -1.36448,-1.8675 0.75976,-1.2636 1.96068,-2.201 3.14713,-3.0489 0.85907,-0.5447 1.76112,-1.0065 2.61058,-1.5668 0.66885,-0.4561 1.39046,-0.7356 2.18567,-0.8657 1.37352,-0.1673 2.13812,0.5622 2.54695,1.7958 0.25597,1.2337 -0.46063,2.1003 -1.34159,2.8422 -0.42174,0.4653 -0.85856,0.9139 -1.32693,1.3324 -1.29441,1.1344 -2.89869,-0.6962 -1.60427,-1.8305 l 0,0 c 0.49572,-0.4184 0.89934,-0.9241 1.3699,-1.3693 0.18009,-0.149 0.47162,-0.4163 0.50299,-0.3902 0.36858,0.3069 -0.12915,0.013 0.0723,0.1275 -0.0113,-0.049 -0.0646,-0.1082 -0.0339,-0.1486 0.0456,-0.06 0.13227,0.084 0.20734,0.089 0.0686,0 0.26015,-0.032 0.19747,-0.06 -0.068,-0.031 -0.14881,0.012 -0.22322,0.018 -0.45538,0.059 -0.83216,0.2324 -1.21616,0.4938 -0.82889,0.5429 -1.69706,1.0112 -2.54492,1.522 -0.52793,0.3649 -1.00408,0.7738 -1.48736,1.196 -0.13467,0.1176 -0.27136,0.2332 -0.40055,0.3568 -0.10867,0.104 -0.17683,0.2606 -0.3125,0.3255 -0.0527,0.025 -10e-4,-0.1168 -0.002,-0.1752 -0.10968,-0.719 -0.0637,-0.8891 -1.46574,-1.1619 -0.2686,-0.052 -0.43597,0.332 -0.66764,0.4776 -0.0799,0.05 0.29899,-0.3605 0.25084,-0.3905 0.29067,-0.7055 0.69487,-1.3404 1.19166,-1.9206 0.50924,-0.6935 0.93371,-1.4461 1.45676,-2.1311 0.71904,-0.9776 1.52079,-1.8939 2.14746,-2.9374 0.10828,-0.1782 0.4466,-0.7304 0.56894,-0.947 0.0514,-0.091 0.044,-0.3013 0.14578,-0.2776 6.9e-4,10e-5 0.23507,0.8976 0.63684,0.8898 0.0893,0.01 0.17851,0.015 0.26799,0.015 0.0181,0 0.0106,-0.059 -0.007,-0.054 -0.34673,0.1053 -0.66351,0.3112 -1.01463,0.4065 -0.63759,0.2057 -1.15008,0.6431 -1.75834,0.9171 -0.53655,0.2455 -1.00693,0.4136 -1.38601,0.8881 -0.60621,0.5462 -1.14201,1.1502 -1.7291,1.7201 -0.59909,0.5388 -1.00132,1.2456 -1.56378,1.8191 -0.75699,-0.2987 -1.55215,-0.5146 -2.27097,-0.8961 -0.104,-0.055 0.63664,-1.1325 0.73047,-1.2306 0.35454,-0.6109 0.71742,-1.2124 1.15931,-1.7657 0.46622,-0.5329 0.88353,-1.0957 1.32353,-1.6519 0.34319,-0.4436 0.65546,-0.9147 0.86446,-1.438 0.0325,-0.062 0.13381,0.297 0.22873,0.3738 0.31839,0.2577 0.49861,0.3066 0.88074,0.2075 -0.41008,0.1604 -0.84749,0.3071 -1.22953,0.5512 -0.52678,0.2829 -1.12328,0.4663 -1.59331,0.8283 -0.5939,0.5247 -1.27383,0.9358 -1.88235,1.4446 -0.6127,0.4286 -1.2576,0.8045 -1.74961,1.383 -0.0636,0.052 -0.11775,0.1182 -0.19074,0.1558 -0.0296,0.015 0.0793,-0.064 0.0529,-0.085 -1.66341,-1.2865 -2.54844,-0.8129 -1.80599,-1.6582 0.403,-0.606 0.75425,-1.2364 1.12554,-1.8625 0.47042,-0.6452 0.88351,-1.3156 1.30871,-1.9904 0.61097,-0.8129 1.17392,-1.6635 1.7983,-2.467 1.07519,-1.344 2.97589,0.1765 1.90069,1.5205 z"
       inkscape:connector-curvature="0" />
    <path
       inkscape:connector-curvature="0"
       d="m 206.03007,996.16426 c -0.60321,0.78415 -1.15867,1.60406 -1.74625,2.39966 -0.40793,0.6728 -0.82977,1.3313 -1.29326,1.96928 -0.32945,0.6084 -0.68332,1.1981 -1.06531,1.7758 -0.61162,0.7697 -0.33406,1.0573 -2.16926,-1.1482 -0.0293,-0.035 0.47471,-0.4377 0.54357,-0.4941 0.52359,-0.6236 1.23515,-1.02308 1.8882,-1.48828 0.4878,-0.4786 1.16385,-0.7554 1.6352,-1.245 0.5656,-0.58595 1.38405,-0.76322 2.06133,-1.16656 0.55222,-0.32027 1.1417,-0.56891 1.74725,-0.76495 1.46166,-0.13068 2.14779,0.78423 1.95208,2.18011 -0.23476,0.9292 -0.75584,1.7398 -1.32727,2.49528 -0.4711,0.5978 -0.92448,1.1991 -1.42341,1.7743 -0.33681,0.4353 -0.61275,0.9031 -0.8849,1.3811 -0.99389,1.3738 -0.15389,1.0217 -2.65217,-0.3468 0.6533,-0.7849 1.24161,-1.6218 1.97937,-2.3333 0.58925,-0.5886 1.14757,-1.19028 1.763,-1.75128 0.53271,-0.6259 1.2714,-0.9557 1.99992,-1.2941 0.64824,-0.3662 1.26813,-0.74591 1.97075,-1.00317 0.98321,-0.41509 1.35842,-0.60759 2.45097,-0.33714 1.73096,0.94521 0.55396,2.68481 -0.16101,3.86339 -0.65696,1.1095 -1.50626,2.08 -2.26674,3.1157 -0.51994,0.6837 -0.94772,1.4288 -1.45102,2.1233 -0.35532,0.4333 -0.69927,0.8706 -0.9002,1.3945 -0.21676,0.4055 -0.72187,1.5511 -1.35898,1.3911 -1.76515,-0.4433 -1.49016,-0.834 -1.36448,-1.8675 0.75976,-1.2636 1.96068,-2.201 3.14713,-3.0489 0.85907,-0.5447 1.76112,-1.0065 2.61058,-1.5668 0.66885,-0.4561 1.39046,-0.7356 2.18567,-0.8657 1.37352,-0.1673 2.13812,0.5622 2.54695,1.7958 0.25597,1.2337 -0.46063,2.1003 -1.34159,2.8422 -0.42174,0.4653 -0.85856,0.9139 -1.32693,1.3324 -1.29441,1.1344 -2.89869,-0.6962 -1.60427,-1.8305 l 0,0 c 0.49572,-0.4184 0.89934,-0.9241 1.3699,-1.3693 0.18009,-0.149 0.47162,-0.4163 0.50299,-0.3902 0.36858,0.3069 -0.12915,0.013 0.0723,0.1275 -0.0113,-0.049 -0.0646,-0.1082 -0.0339,-0.1486 0.0456,-0.06 0.13227,0.084 0.20734,0.089 0.0686,0 0.26015,-0.032 0.19747,-0.06 -0.068,-0.031 -0.14881,0.012 -0.22322,0.018 -0.45538,0.059 -0.83216,0.2324 -1.21616,0.4938 -0.82889,0.5429 -1.69706,1.0112 -2.54492,1.522 -0.52793,0.3649 -1.00408,0.7738 -1.48736,1.196 -0.13467,0.1176 -0.27136,0.2332 -0.40055,0.3568 -0.10867,0.104 -0.17683,0.2606 -0.3125,0.3255 -0.0527,0.025 -10e-4,-0.1168 -0.002,-0.1752 -0.10968,-0.719 -0.0637,-0.8891 -1.46574,-1.1619 -0.2686,-0.052 -0.43597,0.332 -0.66764,0.4776 -0.0799,0.05 0.29899,-0.3605 0.25084,-0.3905 0.29067,-0.7055 0.69487,-1.3404 1.19166,-1.9206 0.50924,-0.6935 0.93371,-1.4461 1.45676,-2.1311 0.71904,-0.9776 1.52079,-1.8939 2.14746,-2.93738 0.10828,-0.1782 0.4466,-0.7304 0.56894,-0.947 0.0514,-0.091 0.044,-0.3013 0.14578,-0.2776 6.9e-4,10e-5 0.23507,0.8976 0.63684,0.8898 0.0893,0.01 0.17851,0.015 0.26799,0.015 0.0181,0 0.0106,-0.059 -0.007,-0.054 -0.34673,0.1053 -0.66351,0.3112 -1.01463,0.4065 -0.63759,0.2057 -1.15008,0.64308 -1.75834,0.91708 -0.53655,0.2455 -1.00693,0.4136 -1.38601,0.8881 -0.60621,0.5462 -1.14201,1.1502 -1.7291,1.7201 -0.59909,0.5388 -1.00132,1.2456 -1.56378,1.8191 -0.75699,-0.2987 -1.55215,-0.5146 -2.27097,-0.8961 -0.104,-0.055 0.63664,-1.1325 0.73047,-1.2306 0.35454,-0.6109 0.71742,-1.2124 1.15931,-1.7657 0.46622,-0.5329 0.88353,-1.09568 1.32353,-1.65188 0.34319,-0.4436 0.65546,-0.9147 0.86446,-1.438 0.0325,-0.062 0.13381,0.297 0.22873,0.3738 0.31839,0.2577 0.49861,0.3066 0.88074,0.2075 -0.41008,0.1604 -0.84749,0.3071 -1.22953,0.5512 -0.52678,0.2829 -1.12328,0.4663 -1.59331,0.8283 -0.5939,0.52468 -1.27383,0.93578 -1.88235,1.44458 -0.6127,0.4286 -1.2576,0.8045 -1.74961,1.383 -0.0636,0.052 -0.11775,0.1182 -0.19074,0.1558 -0.0296,0.015 0.0793,-0.064 0.0529,-0.085 -1.66341,-1.2865 -2.54844,-0.8129 -1.80599,-1.6582 0.403,-0.606 0.75425,-1.23638 1.12554,-1.86248 0.47042,-0.6452 0.88351,-1.3156 1.30871,-1.99037 0.61097,-0.81293 1.17392,-1.66344 1.7983,-2.46703 1.07519,-1.34399 2.97589,0.17657 1.90069,1.52056 z"
       id="path4348"
       style="opacity:0.4;fill:#000000;fill-opacity:1;stroke:none;stroke-width:1;stroke-linecap:round;stroke-linejoin:round;stroke-miterlimit:4;stroke-dasharray:none;stroke-opacity:1" />
    <path
       inkscape:connector-curvature="0"
       d="m 236.5132,914.84907 c -0.10218,1.06096 -0.20436,2.12192 -0.30655,3.18287 -0.0381,0.39604 -0.0763,0.79208 -0.11442,1.1881 -0.16501,1.71323 -2.58788,1.47987 -2.42287,-0.23335 l 0,0 c 0.0381,-0.39603 0.0763,-0.79206 0.11443,-1.1881 0.10218,-1.06095 0.20436,-2.12191 0.30654,-3.18287 0.16501,-1.71323 2.58788,-1.47987 2.42287,0.23335 z"
       id="path4350"
       style="opacity:1;fill:#000000;fill-opacity:1;stroke:none;stroke-width:2;stroke-linecap:round;stroke-linejoin:round;stroke-miterlimit:4;stroke-dasharray:none;stroke-opacity:1" />
    <path
       inkscape:connector-curvature="0"
       d="m 236.54844,891.46259 c -0.0826,-1.87886 0.16859,-3.72681 0.63072,-5.54301 0.0854,-0.29176 0.1707,-0.58351 0.25605,-0.87527 0.48444,-1.65157 2.82012,-0.96647 2.33567,0.6851 l 0,0 c -0.0783,0.26613 -0.15657,0.53226 -0.23486,0.79839 -0.42392,1.61522 -0.6277,3.26206 -0.55351,4.93479 0,1.72115 -2.43407,1.72115 -2.43407,0 z"
       id="path4352"
       style="opacity:1;fill:#000000;fill-opacity:1;stroke:none;stroke-width:2;stroke-linecap:round;stroke-linejoin:round;stroke-miterlimit:4;stroke-dasharray:none;stroke-opacity:1" />
    <circle
       r="10.141988"
       cy="874.66669"
       cx="239.38818"
       id="circle4354"
       style="opacity:1;fill:none;fill-opacity:0.50196078;stroke:#000000;stroke-width:2;stroke-linecap:round;stroke-linejoin:round;stroke-miterlimit:4;stroke-dasharray:none;stroke-opacity:1" />
    <circle
       style="opacity:1;fill:none;fill-opacity:0.50196078;stroke:#000000;stroke-width:2;stroke-linecap:round;stroke-linejoin:round;stroke-miterlimit:4;stroke-dasharray:none;stroke-opacity:1"
       id="circle4356"
       cx="210.83163"
       cy="929.11676"
       r="10.141988" />
    <path
       inkscape:connector-curvature="0"
       d="m 207.73392,924.03444 c -0.60321,0.78415 -1.15867,1.6041 -1.74625,2.39958 -0.40793,0.6728 -0.82977,1.33132 -1.29326,1.96937 -0.32945,0.6084 -0.68332,1.19803 -1.06531,1.77581 -0.61162,0.76964 -0.33406,1.05728 -2.16926,-1.14828 -0.0293,-0.0353 0.47471,-0.43764 0.54357,-0.49403 0.52359,-0.62359 1.23515,-1.02313 1.8882,-1.48836 0.4878,-0.47857 1.16385,-0.75537 1.6352,-1.24495 0.5656,-0.58593 1.38405,-0.7632 2.06133,-1.16654 0.55222,-0.32027 1.1417,-0.56891 1.74725,-0.76495 1.46166,-0.13068 2.14779,0.78423 1.95208,2.18015 -0.23476,0.92915 -0.75584,1.73968 -1.32727,2.49525 -0.4711,0.59775 -0.92448,1.19902 -1.42341,1.77425 -0.33681,0.43528 -0.61275,0.90314 -0.8849,1.38112 -0.99389,1.37375 -0.15389,1.02174 -2.65217,-0.3468 0.6533,-0.78488 1.24161,-1.62183 1.97937,-2.3333 0.58925,-0.58862 1.14757,-1.19032 1.763,-1.75134 0.53271,-0.62587 1.2714,-0.9557 1.99992,-1.29398 0.64824,-0.36628 1.26813,-0.74595 1.97075,-1.00321 0.98321,-0.41509 1.35842,-0.60759 2.45097,-0.33714 1.73096,0.94517 0.55396,2.68478 -0.16101,3.86339 -0.65696,1.10949 -1.50626,2.08002 -2.26674,3.11571 -0.51994,0.68371 -0.94772,1.42879 -1.45102,2.12327 -0.35532,0.43327 -0.69927,0.87063 -0.9002,1.39453 -0.21676,0.40545 -0.72187,1.55106 -1.35898,1.39106 -1.76515,-0.44332 -1.49016,-0.83398 -1.36448,-1.86754 0.75976,-1.26353 1.96068,-2.20093 3.14713,-3.04889 0.85907,-0.54469 1.76112,-1.00642 2.61058,-1.56673 0.66885,-0.45615 1.39046,-0.73567 2.18567,-0.86575 1.37352,-0.16729 2.13812,0.56223 2.54695,1.79581 0.25597,1.23372 -0.46063,2.10035 -1.34159,2.84219 -0.42174,0.46534 -0.85856,0.91387 -1.32693,1.33245 -1.29441,1.1344 -2.89869,-0.69619 -1.60427,-1.83058 l 0,0 c 0.49572,-0.41831 0.89934,-0.92404 1.3699,-1.36925 0.18009,-0.14905 0.47162,-0.41627 0.50299,-0.39016 0.36858,0.30685 -0.12915,0.0133 0.0723,0.12747 -0.0113,-0.0495 -0.0646,-0.10817 -0.0339,-0.1486 0.0456,-0.0599 0.13227,0.0841 0.20734,0.0892 0.0686,0.005 0.26015,-0.0316 0.19747,-0.0599 -0.068,-0.0308 -0.14881,0.0117 -0.22322,0.0176 -0.45538,0.059 -0.83216,0.23234 -1.21616,0.49378 -0.82889,0.54288 -1.69706,1.01117 -2.54492,1.52203 -0.52793,0.36491 -1.00408,0.77377 -1.48736,1.19596 -0.13467,0.11764 -0.27136,0.23321 -0.40055,0.35684 -0.10867,0.10397 -0.17683,0.26054 -0.3125,0.32544 -0.0527,0.0252 -0.001,-0.1168 -0.002,-0.1752 -0.10968,-0.71893 -0.0637,-0.8891 -1.46574,-1.1619 -0.2686,-0.0523 -0.43597,0.33202 -0.66764,0.47764 -0.0799,0.0502 0.29899,-0.36046 0.25084,-0.39048 0.29067,-0.7055 0.69487,-1.34045 1.19166,-1.92061 0.50924,-0.6935 0.93371,-1.44613 1.45676,-2.13112 0.71904,-0.97763 1.52079,-1.89393 2.14746,-2.93743 0.10828,-0.1782 0.4466,-0.73032 0.56894,-0.94692 0.0514,-0.091 0.044,-0.3013 0.14578,-0.27763 6.9e-4,1.7e-4 0.23507,0.89763 0.63684,0.88981 0.0893,0.005 0.17851,0.0152 0.26799,0.0153 0.0181,1e-5 0.0106,-0.0591 -0.007,-0.0538 -0.34673,0.1053 -0.66351,0.31113 -1.01463,0.40646 -0.63759,0.20571 -1.15008,0.64316 -1.75834,0.91707 -0.53655,0.24558 -1.00693,0.41368 -1.38601,0.88815 -0.60621,0.54622 -1.14201,1.15023 -1.7291,1.72005 -0.59909,0.53885 -1.00132,1.24561 -1.56378,1.81911 -0.75699,-0.29868 -1.55215,-0.51456 -2.27097,-0.89606 -0.104,-0.0552 0.63664,-1.13249 0.73047,-1.23056 0.35454,-0.61091 0.71742,-1.21243 1.15931,-1.76575 0.46622,-0.53292 0.88353,-1.0957 1.32353,-1.65185 0.34319,-0.44363 0.65546,-0.91465 0.86446,-1.43799 0.0325,-0.0618 0.13381,0.29704 0.22873,0.37383 0.31839,0.25759 0.49861,0.30648 0.88074,0.20742 -0.41008,0.16038 -0.84749,0.30707 -1.22953,0.55118 -0.52678,0.28292 -1.12328,0.46628 -1.59331,0.82832 -0.5939,0.52469 -1.27383,0.93579 -1.88235,1.44456 -0.6127,0.42859 -1.2576,0.80455 -1.74961,1.38303 -0.0636,0.0519 -0.11775,0.11823 -0.19074,0.1558 -0.0296,0.0153 0.0793,-0.0644 0.0529,-0.0848 -1.66341,-1.28652 -2.54844,-0.8129 -1.80599,-1.65818 0.403,-0.60597 0.75425,-1.23637 1.12554,-1.86249 0.47042,-0.64524 0.88351,-1.31553 1.30871,-1.99035 0.61097,-0.81293 1.17392,-1.66344 1.7983,-2.46703 1.07519,-1.34399 2.97589,0.17657 1.90069,1.52056 z"
       id="path4358"
       style="opacity:0.4;fill:#000000;fill-opacity:1;stroke:none;stroke-width:1;stroke-linecap:round;stroke-linejoin:round;stroke-miterlimit:4;stroke-dasharray:none;stroke-opacity:1" />
    <circle
       r="10.141988"
       cy="960.02954"
       cx="205.96347"
       id="circle4360"
       style="opacity:1;fill:none;fill-opacity:0.50196078;stroke:#000000;stroke-width:2;stroke-linecap:round;stroke-linejoin:round;stroke-miterlimit:4;stroke-dasharray:none;stroke-opacity:1" />
    <path
       style="opacity:0.4;fill:#000000;fill-opacity:1;stroke:none;stroke-width:1;stroke-linecap:round;stroke-linejoin:round;stroke-miterlimit:4;stroke-dasharray:none;stroke-opacity:1"
       id="path4362"
       d="m 202.86577,954.94722 c -0.60321,0.78415 -1.15867,1.6041 -1.74625,2.39958 -0.40793,0.6728 -0.82977,1.33132 -1.29326,1.96937 -0.32945,0.6084 -0.68332,1.19803 -1.06531,1.77581 -0.61162,0.76964 -0.33406,1.05728 -2.16926,-1.14828 -0.0293,-0.0353 0.47471,-0.43764 0.54357,-0.49403 0.52359,-0.62359 1.23515,-1.02313 1.8882,-1.48836 0.4878,-0.47857 1.16385,-0.75537 1.6352,-1.24495 0.5656,-0.58593 1.38405,-0.7632 2.06133,-1.16654 0.55222,-0.32027 1.1417,-0.56891 1.74725,-0.76495 1.46166,-0.13068 2.14779,0.78423 1.95208,2.18015 -0.23476,0.92915 -0.75584,1.73968 -1.32727,2.49525 -0.4711,0.59775 -0.92448,1.19902 -1.42341,1.77425 -0.33681,0.43528 -0.61275,0.90314 -0.8849,1.38112 -0.99389,1.37375 -0.15389,1.02174 -2.65217,-0.3468 0.6533,-0.78488 1.24161,-1.62183 1.97937,-2.3333 0.58925,-0.58862 1.14757,-1.19032 1.763,-1.75134 0.53271,-0.62587 1.2714,-0.9557 1.99992,-1.29398 0.64824,-0.36628 1.26813,-0.74595 1.97075,-1.00321 0.98321,-0.41509 1.35842,-0.60759 2.45097,-0.33714 1.73096,0.94517 0.55396,2.68478 -0.16101,3.86339 -0.65696,1.10949 -1.50626,2.08002 -2.26674,3.11571 -0.51994,0.68371 -0.94772,1.42879 -1.45102,2.12327 -0.35532,0.43327 -0.69927,0.87063 -0.9002,1.39453 -0.21676,0.40545 -0.72187,1.55106 -1.35898,1.39106 -1.76515,-0.44332 -1.49016,-0.83398 -1.36448,-1.86754 0.75976,-1.26353 1.96068,-2.20093 3.14713,-3.04889 0.85907,-0.54469 1.76112,-1.00642 2.61058,-1.56673 0.66885,-0.45615 1.39046,-0.73567 2.18567,-0.86575 1.37352,-0.16729 2.13812,0.56223 2.54695,1.79581 0.25597,1.23372 -0.46063,2.10035 -1.34159,2.84219 -0.42174,0.46534 -0.85856,0.91387 -1.32693,1.33245 -1.29441,1.1344 -2.89869,-0.69619 -1.60427,-1.83058 l 0,0 c 0.49572,-0.41831 0.89934,-0.92404 1.3699,-1.36925 0.18009,-0.14905 0.47162,-0.41627 0.50299,-0.39016 0.36858,0.30685 -0.12915,0.0133 0.0723,0.12747 -0.0113,-0.0495 -0.0646,-0.10817 -0.0339,-0.1486 0.0456,-0.0599 0.13227,0.0841 0.20734,0.0892 0.0686,0.005 0.26015,-0.0316 0.19747,-0.0599 -0.068,-0.0308 -0.14881,0.0117 -0.22322,0.0176 -0.45538,0.059 -0.83216,0.23234 -1.21616,0.49378 -0.82889,0.54288 -1.69706,1.01117 -2.54492,1.52203 -0.52793,0.36491 -1.00408,0.77377 -1.48736,1.19596 -0.13467,0.11764 -0.27136,0.23321 -0.40055,0.35684 -0.10867,0.10397 -0.17683,0.26054 -0.3125,0.32544 -0.0527,0.0252 -0.001,-0.1168 -0.002,-0.1752 -0.10968,-0.71893 -0.0637,-0.8891 -1.46574,-1.1619 -0.2686,-0.0523 -0.43597,0.33202 -0.66764,0.47764 -0.0799,0.0502 0.29899,-0.36046 0.25084,-0.39048 0.29067,-0.7055 0.69487,-1.34045 1.19166,-1.92061 0.50924,-0.6935 0.93371,-1.44613 1.45676,-2.13112 0.71904,-0.97763 1.52079,-1.89393 2.14746,-2.93743 0.10828,-0.1782 0.4466,-0.73032 0.56894,-0.94692 0.0514,-0.091 0.044,-0.3013 0.14578,-0.27763 6.9e-4,1.7e-4 0.23507,0.89763 0.63684,0.88981 0.0893,0.005 0.17851,0.0152 0.26799,0.0153 0.0181,1e-5 0.0106,-0.0591 -0.007,-0.0538 -0.34673,0.1053 -0.66351,0.31113 -1.01463,0.40646 -0.63759,0.20571 -1.15008,0.64316 -1.75834,0.91707 -0.53655,0.24558 -1.00693,0.41368 -1.38601,0.88815 -0.60621,0.54622 -1.14201,1.15023 -1.7291,1.72005 -0.59909,0.53885 -1.00132,1.24561 -1.56378,1.81911 -0.75699,-0.29868 -1.55215,-0.51456 -2.27097,-0.89606 -0.104,-0.0552 0.63664,-1.13249 0.73047,-1.23056 0.35454,-0.61091 0.71742,-1.21243 1.15931,-1.76575 0.46622,-0.53292 0.88353,-1.0957 1.32353,-1.65185 0.34319,-0.44363 0.65546,-0.91465 0.86446,-1.43799 0.0325,-0.0618 0.13381,0.29704 0.22873,0.37383 0.31839,0.25759 0.49861,0.30648 0.88074,0.20742 -0.41008,0.16038 -0.84749,0.30707 -1.22953,0.55118 -0.52678,0.28292 -1.12328,0.46628 -1.59331,0.82832 -0.5939,0.52469 -1.27383,0.93579 -1.88235,1.44456 -0.6127,0.42859 -1.2576,0.80455 -1.74961,1.38303 -0.0636,0.0519 -0.11775,0.11823 -0.19074,0.1558 -0.0296,0.0153 0.0793,-0.0644 0.0529,-0.0848 -1.66341,-1.28652 -2.54844,-0.8129 -1.80599,-1.65818 0.403,-0.60597 0.75425,-1.23637 1.12554,-1.86249 0.47042,-0.64524 0.88351,-1.31553 1.30871,-1.99035 0.61097,-0.81293 1.17392,-1.66344 1.7983,-2.46703 1.07519,-1.34399 2.97589,0.17657 1.90069,1.52056 z"
       inkscape:connector-curvature="0" />
    <circle
       style="opacity:1;fill:none;fill-opacity:0.50196078;stroke:#000000;stroke-width:2;stroke-linecap:round;stroke-linejoin:round;stroke-miterlimit:4;stroke-dasharray:none;stroke-opacity:1"
       id="circle4364"
       cx="209.44904"
       cy="882.69916"
       r="10.141988" />
    <circle
       r="10.141988"
       cy="888.78436"
       cx="265.18939"
       id="circle4366"
       style="opacity:1;fill:none;fill-opacity:0.50196078;stroke:#000000;stroke-width:2;stroke-linecap:round;stroke-linejoin:round;stroke-miterlimit:4;stroke-dasharray:none;stroke-opacity:1" />
    <path
       inkscape:connector-curvature="0"
       d="m 218.16571,936.92965 c 0.98955,0.7536 1.8635,1.6427 2.81364,2.44234 0.65881,0.58603 1.33856,1.14063 1.99146,1.73253 1.27134,1.16019 -0.36942,2.95814 -1.64076,1.79795 l 0,0 c -0.62642,-0.57449 -1.28932,-1.10173 -1.92184,-1.67139 -0.9113,-0.77286 -1.75939,-1.61904 -2.70295,-2.35417 -1.37692,-1.03269 0.0835,-2.97995 1.46045,-1.94726 z"
       id="path4370"
       style="opacity:1;fill:#000000;fill-opacity:1;stroke:none;stroke-width:1;stroke-linecap:round;stroke-linejoin:round;stroke-miterlimit:4;stroke-dasharray:none;stroke-opacity:1" />
    <path
       style="opacity:1;fill:#000000;fill-opacity:1;stroke:none;stroke-width:1;stroke-linecap:round;stroke-linejoin:round;stroke-miterlimit:4;stroke-dasharray:none;stroke-opacity:1"
       id="path4374"
       d="m 218.11825,888.20584 c 2.00766,0.8391 3.79811,2.10757 5.59134,3.32197 1.42148,0.94695 2.72698,2.05113 4.04105,3.13842 0.44416,0.33976 0.23,0.19626 0.63469,0.44192 1.45653,0.91699 0.15971,2.97684 -1.29683,2.05985 l 0,0 c -0.61398,-0.39482 -0.31679,-0.18524 -0.89188,-0.62834 -1.25053,-1.04037 -2.49876,-2.09005 -3.85192,-2.99645 -1.58349,-1.07242 -3.16204,-2.17522 -4.89514,-2.99695 -1.65493,-0.47284 -0.98624,-2.81326 0.66869,-2.34042 z"
       inkscape:connector-curvature="0" />
    <path
       style="opacity:1;fill:#000000;fill-opacity:1;stroke:none;stroke-width:1;stroke-linecap:round;stroke-linejoin:round;stroke-miterlimit:4;stroke-dasharray:none;stroke-opacity:1"
       id="path4376"
       d="m 245.67874,896.98691 c 1.71943,-0.40812 3.32231,-1.17112 4.916,-1.91422 1.26537,-0.70463 2.57806,-1.30221 3.89193,-1.90539 1.56552,-0.71521 2.57698,1.49876 1.01146,2.21398 l 0,0 c -1.31058,0.59633 -2.61242,1.2009 -3.87524,1.89768 -1.90525,0.8874 -3.84442,1.8382 -5.94415,2.14202 -1.72116,0 -1.72116,-2.43407 0,-2.43407 z"
       inkscape:connector-curvature="0" />
    <path
       style="opacity:1;fill:#000000;fill-opacity:1;stroke:none;stroke-width:1;stroke-linecap:round;stroke-linejoin:round;stroke-miterlimit:4;stroke-dasharray:none;stroke-opacity:1"
       id="path4378"
       d="m 200.31581,918.06555 c 0.86912,0.64313 1.62763,1.41993 2.29141,2.27026 0.28979,0.36159 0.58617,0.7164 0.87395,1.07953 1.06264,1.35395 -0.85214,2.85674 -1.91477,1.50279 l 0,0 c -0.2889,-0.37363 -0.59833,-0.73002 -0.89064,-1.10103 -0.51176,-0.68703 -1.13902,-1.28702 -1.8204,-1.80429 -1.37692,-1.03269 0.0835,-2.97996 1.46045,-1.94726 z"
       inkscape:connector-curvature="0" />
    <path
       inkscape:connector-curvature="0"
       d="m 200.31581,918.06555 c 0.86912,0.64313 1.62763,1.41993 2.29141,2.27026 0.28979,0.36159 0.58617,0.7164 0.87395,1.07953 1.06264,1.35395 -0.85214,2.85674 -1.91477,1.50279 l 0,0 c -0.2889,-0.37363 -0.59833,-0.73002 -0.89064,-1.10103 -0.51176,-0.68703 -1.13902,-1.28702 -1.8204,-1.80429 -1.37692,-1.03269 0.0835,-2.97996 1.46045,-1.94726 z"
       id="path4380"
       style="opacity:1;fill:#000000;fill-opacity:1;stroke:none;stroke-width:1;stroke-linecap:round;stroke-linejoin:round;stroke-miterlimit:4;stroke-dasharray:none;stroke-opacity:1" />
    <path
       style="opacity:1;fill:#000000;fill-opacity:1;stroke:none;stroke-width:1;stroke-linecap:round;stroke-linejoin:round;stroke-miterlimit:4;stroke-dasharray:none;stroke-opacity:1"
       id="path4386"
       d="m 196.3376,914.08056 c 0.37508,0.36599 0.77805,0.70135 1.17548,1.04232 1.3062,1.12081 -0.27887,2.96805 -1.58507,1.84724 l 0,0 c -0.37605,-0.32273 -0.76103,-0.63728 -1.11097,-0.98886 -1.34399,-1.0752 0.17656,-2.97589 1.52056,-1.9007 z"
       inkscape:connector-curvature="0" />
    <path
       inkscape:connector-curvature="0"
       d="m 191.87513,910.42944 c 0.37508,0.36599 0.77805,0.70135 1.17548,1.04232 1.3062,1.12081 -0.27887,2.96805 -1.58507,1.84724 l 0,0 c -0.37605,-0.32273 -0.76103,-0.63728 -1.11097,-0.98886 -1.34399,-1.0752 0.17656,-2.97589 1.52056,-1.9007 z"
       id="path4388"
       style="opacity:1;fill:#000000;fill-opacity:1;stroke:none;stroke-width:1;stroke-linecap:round;stroke-linejoin:round;stroke-miterlimit:4;stroke-dasharray:none;stroke-opacity:1" />
    <path
       style="opacity:1;fill:#000000;fill-opacity:1;stroke:none;stroke-width:1;stroke-linecap:round;stroke-linejoin:round;stroke-miterlimit:4;stroke-dasharray:none;stroke-opacity:1"
       id="path4390"
       d="m 194.02778,949.50571 c 0.86912,0.64313 1.62763,1.41993 2.29141,2.27026 0.28979,0.36159 0.58617,0.7164 0.87395,1.07953 1.06264,1.35395 -0.85214,2.85674 -1.91477,1.50279 l 0,0 c -0.2889,-0.37363 -0.59833,-0.73002 -0.89064,-1.10103 -0.51176,-0.68703 -1.13902,-1.28702 -1.8204,-1.80429 -1.37692,-1.03269 0.0835,-2.97996 1.46045,-1.94726 z"
       inkscape:connector-curvature="0" />
    <path
       inkscape:connector-curvature="0"
       d="m 190.04957,945.52072 c 0.37508,0.36599 0.77805,0.70135 1.17548,1.04232 1.3062,1.12081 -0.27887,2.96805 -1.58507,1.84724 l 0,0 c -0.37605,-0.32273 -0.76103,-0.63728 -1.11097,-0.98886 -1.34399,-1.0752 0.17656,-2.97589 1.52056,-1.9007 z"
       id="path4392"
       style="opacity:1;fill:#000000;fill-opacity:1;stroke:none;stroke-width:1;stroke-linecap:round;stroke-linejoin:round;stroke-miterlimit:4;stroke-dasharray:none;stroke-opacity:1" />
    <path
       style="opacity:1;fill:#000000;fill-opacity:1;stroke:none;stroke-width:1;stroke-linecap:round;stroke-linejoin:round;stroke-miterlimit:4;stroke-dasharray:none;stroke-opacity:1"
       id="path4394"
       d="m 185.5871,941.8696 c 0.37508,0.36599 0.77805,0.70135 1.17548,1.04232 1.3062,1.12081 -0.27887,2.96805 -1.58507,1.84724 l 0,0 c -0.37605,-0.32273 -0.76103,-0.63728 -1.11097,-0.98886 -1.34399,-1.0752 0.17656,-2.97589 1.52056,-1.9007 z"
       inkscape:connector-curvature="0" />
    <path
       style="opacity:1;fill:#000000;fill-opacity:1;stroke:none;stroke-width:1;stroke-linecap:round;stroke-linejoin:round;stroke-miterlimit:4;stroke-dasharray:none;stroke-opacity:1"
       id="path4402"
       d="m 78.637415,916.72435 c -0.190521,1.80857 -0.381052,3.61715 -0.571576,5.42571 -0.209392,1.98766 -0.418785,3.97532 -0.628177,5.96298 -0.106807,1.11116 -0.162813,2.20883 -0.560968,3.25794 -0.669945,1.58541 -2.912059,0.63796 -2.242114,-0.94744 l 0,0 c 0.443187,-0.72751 0.149502,-1.77353 0.3824,-2.56551 0.209392,-1.98766 0.418784,-3.97532 0.628177,-5.96298 0.190521,-1.80856 0.381051,-3.61713 0.571577,-5.42571 0.180318,-1.71168 2.601,-1.45667 2.420683,0.25498 z"
       inkscape:connector-curvature="0" />
    <path
       style="opacity:1;fill:#000000;fill-opacity:1;stroke:none;stroke-width:1;stroke-linecap:round;stroke-linejoin:round;stroke-miterlimit:4;stroke-dasharray:none;stroke-opacity:1"
       id="path4406"
       d="m 76.201787,941.36331 c -0.252301,2.20921 -0.504605,4.41843 -0.756906,6.62765 -0.119287,1.08415 -0.198381,2.16036 -0.483281,3.21366 -0.489059,1.65021 -2.822806,0.95858 -2.333747,-0.69163 l 0,0 c 0.31553,-0.88889 0.213996,-1.87894 0.39867,-2.79823 0.252303,-2.20921 0.504605,-4.41843 0.756907,-6.62764 0.195295,-1.71004 2.613652,-1.43385 2.418357,0.27619 z"
       inkscape:connector-curvature="0" />
    <circle
       r="10.141988"
       cy="986.85626"
       cx="72.023315"
       id="circle4408"
       style="opacity:1;fill:none;fill-opacity:0.50196078;stroke:#000000;stroke-width:2;stroke-linecap:round;stroke-linejoin:round;stroke-miterlimit:4;stroke-dasharray:none;stroke-opacity:1" />
    <path
       inkscape:connector-curvature="0"
       d="m 74.174941,960.94342 c -0.190521,1.80857 -0.381052,3.61715 -0.571576,5.42571 -0.209392,1.98766 -0.418785,3.97532 -0.628177,5.96298 -0.106807,1.11116 -0.162813,2.20883 -0.560968,3.25794 -0.669945,1.58541 -2.912059,0.63796 -2.242114,-0.94744 l 0,0 c 0.443187,-0.72751 0.149502,-1.77353 0.3824,-2.56551 0.209392,-1.98766 0.418784,-3.97532 0.628177,-5.96298 0.190521,-1.80856 0.381051,-3.61713 0.571577,-5.42571 0.180318,-1.71168 2.601,-1.45667 2.420683,0.25498 z"
       id="path4410"
       style="opacity:1;fill:#000000;fill-opacity:1;stroke:none;stroke-width:1;stroke-linecap:round;stroke-linejoin:round;stroke-miterlimit:4;stroke-dasharray:none;stroke-opacity:1" />
    <path
       style="opacity:1;fill:#000000;fill-opacity:1;stroke:none;stroke-width:1;stroke-linecap:round;stroke-linejoin:round;stroke-miterlimit:4;stroke-dasharray:none;stroke-opacity:1"
       id="path4416"
       d="m 58.194781,911.59555 c -0.686698,2.07308 -1.340968,4.15274 -2.165678,6.1763 -0.477197,1.28545 -1.059433,2.52024 -1.667508,3.74682 -0.150226,0.38201 -0.390601,0.71113 -0.638681,1.03323 -1.070374,1.34784 -2.976504,-0.16589 -1.90613,-1.51373 l 0,0 c 0.160126,-0.18607 0.284352,-0.35681 0.364507,-0.60163 0.582885,-1.17319 1.139954,-2.35405 1.594483,-3.58515 0.819196,-2.00045 1.451735,-4.06287 2.13991,-6.1105 0.604337,-1.61157 2.883434,-0.75691 2.279097,0.85466 z"
       inkscape:connector-curvature="0" />
    <path
       style="opacity:1;fill:#000000;fill-opacity:1;stroke:none;stroke-width:1;stroke-linecap:round;stroke-linejoin:round;stroke-miterlimit:4;stroke-dasharray:none;stroke-opacity:1"
       id="path4418"
       d="m 50.956112,932.14568 c -0.726822,2.10425 -1.529584,4.18221 -2.340062,6.25564 -0.76358,1.93001 -1.527532,3.88068 -2.532292,5.70115 -0.211506,0.44213 -0.516081,0.82043 -0.833227,1.18873 -1.137973,1.29128 -2.964108,-0.31806 -1.826135,-1.60933 l 0,0 c 0.215649,-0.23332 0.405362,-0.4683 0.534237,-0.76624 0.970894,-1.71094 1.649095,-3.58476 2.390409,-5.40054 0.79557,-2.0349 1.583915,-4.07419 2.297902,-6.13913 0.544276,-1.63283 2.853444,-0.86311 2.309168,0.76972 z"
       inkscape:connector-curvature="0" />
    <circle
       style="opacity:1;fill:none;fill-opacity:0.50196078;stroke:#000000;stroke-width:2;stroke-linecap:round;stroke-linejoin:round;stroke-miterlimit:4;stroke-dasharray:none;stroke-opacity:1"
       id="circle4420"
       cx="44.842789"
       cy="955.21326"
       r="10.141988" />
    <path
       style="opacity:1;fill:#000000;fill-opacity:1;stroke:none;stroke-width:1;stroke-linecap:round;stroke-linejoin:round;stroke-miterlimit:4;stroke-dasharray:none;stroke-opacity:1"
       id="path4422"
       d="m 105.03154,903.80117 c 1.37467,1.40427 2.61269,2.93404 3.90133,4.41614 0.90878,0.97266 1.80725,1.95068 2.69004,2.94658 0.0992,0.12439 0.19833,0.24879 0.29749,0.37319 1.06785,1.34984 -0.84112,2.86 -1.90896,1.51016 l 0,0 c -0.0711,-0.0908 -0.14218,-0.18162 -0.21326,-0.27243 -0.88323,-1.00381 -1.79344,-1.97911 -2.70221,-2.96046 -1.2998,-1.49509 -2.55061,-3.03546 -3.93434,-4.45493 -1.10185,-1.32222 0.76806,-2.88048 1.86991,-1.55825 z"
       inkscape:connector-curvature="0" />
    <path
       style="opacity:1;fill:#000000;fill-opacity:1;stroke:none;stroke-width:1;stroke-linecap:round;stroke-linejoin:round;stroke-miterlimit:4;stroke-dasharray:none;stroke-opacity:1"
       id="path4434"
       d="m 117.25847,919.45184 c 1.11888,2.30535 2.11437,4.67012 3.07958,7.04362 0.64455,1.70572 0.32969,0.90211 0.93867,2.41316 0.64298,1.59654 -1.61487,2.50585 -2.25785,0.9093 l 0,0 c -0.62049,-1.54179 -0.30737,-0.74029 -0.93575,-2.40591 -0.9407,-2.31551 -1.91163,-4.62239 -3.00175,-6.87162 -0.76973,-1.53944 1.40738,-2.62799 2.1771,-1.08855 z"
       inkscape:connector-curvature="0" />
    <circle
       r="10.141988"
       cy="940.20312"
       cx="123.54462"
       id="circle4436"
       style="opacity:1;fill:none;fill-opacity:0.50196078;stroke:#000000;stroke-width:2;stroke-linecap:round;stroke-linejoin:round;stroke-miterlimit:4;stroke-dasharray:none;stroke-opacity:1" />
    <path
       style="opacity:1;fill:#000000;fill-opacity:1;stroke:none;stroke-width:1;stroke-linecap:round;stroke-linejoin:round;stroke-miterlimit:4;stroke-dasharray:none;stroke-opacity:1"
       id="path4438"
       d="m 67.765172,998.11407 c -1.604589,2.02493 -3.233177,4.02943 -4.793992,6.08973 -1.314392,1.6998 -2.574344,3.4405 -3.850958,5.1686 -1.022703,1.3843 -2.980479,-0.062 -1.957777,-1.4463 l 0,0 c 1.282496,-1.736 2.548347,-3.4846 3.868684,-5.1923 1.558808,-2.0568 3.183978,-4.059 4.786781,-6.08017 1.032692,-1.37692 2.979953,0.0835 1.947262,1.46044 z"
       inkscape:connector-curvature="0" />
    <path
       style="opacity:1;fill:#000000;fill-opacity:1;stroke:none;stroke-width:1;stroke-linecap:round;stroke-linejoin:round;stroke-miterlimit:4;stroke-dasharray:none;stroke-opacity:1"
       id="path4440"
       d="m 80.824475,996.10826 c 0.859628,2.43455 1.780815,4.84904 2.742723,7.24514 0.389241,0.9036 0.784603,1.801 1.235871,2.675 0.785856,1.5313 -1.37969,2.6427 -2.165546,1.1114 l 0,0 c -0.481461,-0.9429 -0.916105,-1.9048 -1.329317,-2.8799 -0.988343,-2.4642 -1.938764,-4.94604 -2.815154,-7.45222 -0.494569,-1.64856 1.836854,-2.34799 2.331423,-0.69942 z"
       inkscape:connector-curvature="0" />
    <path
       style="opacity:1;fill:#000000;fill-opacity:1;stroke:none;stroke-width:1;stroke-linecap:round;stroke-linejoin:round;stroke-miterlimit:4;stroke-dasharray:none;stroke-opacity:1"
       id="path4448"
       d="m 56.389452,1008.3857 c -0.06083,0.2917 -0.106647,0.5869 -0.182491,0.875 -0.338014,1.2841 -0.839088,2.5449 -1.236802,3.8104 -0.473581,1.5069 -0.932412,3.0184 -1.403729,4.526 -1.53798,4.9339 -3.225392,9.821 -5.008678,14.6713 -0.49912,1.3341 -0.986004,2.6769 -1.539719,3.9899 -0.282249,0.6693 -0.227535,0.341 -0.271752,0.7243 -0.02014,-0.3002 -0.139826,-0.6105 -0.06042,-0.9008 0.03265,-0.1194 0.220888,-0.1356 0.344627,-0.1382 0.528412,-0.011 1.054507,0.076 1.582581,0.098 2.895588,0.1202 5.797193,0.1068 8.694491,0.1223 4.524195,-0.086 9.060507,0.1423 13.582248,-0.064 0.154815,-0.057 0.448861,-0.01 0.464445,-0.1697 0.01435,-0.1511 -0.306152,0.087 -0.452876,0.048 -0.145718,-0.039 -0.288421,-0.1362 -0.366339,-0.2653 -0.278617,-0.4615 -0.444197,-0.9825 -0.679729,-1.4674 -0.848455,-1.7468 -1.734356,-3.4752 -2.599498,-5.2137 -2.446969,-4.6739 -4.476415,-9.55 -6.846342,-14.2602 -0.727028,-1.3293 -1.47041,-2.6502 -2.1465,-4.0064 -0.766411,-1.5411 1.41303,-2.625 2.17944,-1.0839 l 0,0 c 0.671684,1.3544 1.422191,2.6675 2.141658,3.9967 2.369519,4.7144 4.405341,9.591 6.850924,14.2694 0.879951,1.7683 1.800394,3.517 2.642098,5.3039 0.48388,1.0272 1.336393,2.594 0.987431,3.8429 -0.336143,1.2031 -1.163407,1.2073 -2.066127,1.4374 -4.562849,0.2 -9.13862,-0.012 -13.703841,0.066 -2.94583,-0.016 -5.900636,0.011 -8.844309,-0.1276 -0.683334,-0.032 -2.811965,-0.071 -3.451135,-0.6332 -0.390981,-0.3439 -0.410986,-0.9569 -0.61648,-1.4353 0.480598,-1.7027 1.39621,-3.2695 1.890627,-4.973 1.77014,-4.8125 3.443501,-9.6621 4.969987,-14.5576 0.885898,-2.8336 1.731416,-5.6827 2.712137,-8.4851 0,-1.7212 2.434077,-1.7212 2.434077,0 z"
       inkscape:connector-curvature="0" />
    <path
       style="opacity:1;fill:#000000;fill-opacity:1;stroke:none;stroke-width:1;stroke-linecap:round;stroke-linejoin:round;stroke-miterlimit:4;stroke-dasharray:none;stroke-opacity:1"
       id="path4456"
       d="m 85.598377,1009.1971 c 0.08017,3.8057 -0.232844,7.6002 -0.597747,11.3843 -0.493411,3.7178 -0.808585,7.4633 -1.521003,11.1485 0.03017,-0.8292 -0.432333,2.2411 -0.225753,1.7451 0.04668,-0.1121 -0.07105,-0.2761 0.0126,-0.3641 0.07761,-0.082 0.225559,-0.013 0.337925,-0.01 0.346985,0.025 0.692337,0.069 1.038505,0.1031 3.516395,0.191 7.041246,0.1482 10.561473,0.1271 0.33411,-0.042 2.83041,0.089 3.02955,-0.1634 0.0761,-0.096 -0.32277,0.018 -0.72562,0.12 -0.14817,-0.3765 -0.27934,-0.7601 -0.44451,-1.1295 -0.69821,-1.5613 -1.373,-2.7854 -2.20002,-4.3179 -1.555388,-2.8822 -3.163812,-5.7347 -4.722667,-8.6151 -1.930568,-3.4573 -3.627456,-7.0369 -5.464192,-10.5432 -0.596615,-1.297 -0.325815,-0.6752 -0.819606,-1.8624 -0.659576,-1.5897 1.58868,-2.5225 2.248255,-0.9328 l 0,0 c 0.441401,1.0669 0.20073,0.5107 0.727659,1.666 1.830681,3.497 3.524696,7.0657 5.448601,10.5139 1.561579,2.8858 3.17443,5.7429 4.73128,8.6312 0.69523,1.2898 1.75202,3.2207 2.33739,4.6262 0.22501,0.5403 0.38189,1.1064 0.57283,1.6596 -0.0734,0.6273 0.0381,1.3056 -0.22023,1.8819 -0.53634,1.1965 -3.49162,0.8432 -4.48417,0.8996 -3.620349,0.022 -7.246155,0.069 -10.861869,-0.1439 -0.789108,-0.104 -1.988695,-0.1411 -2.682238,-0.6741 -1.29923,-0.9983 -0.892105,-2.3596 -0.584661,-3.6864 0.703502,-3.6079 0.99603,-7.279 1.487663,-10.9186 0.358232,-3.7063 0.666368,-7.4228 0.586482,-11.1504 0,-1.7211 2.434077,-1.7211 2.434077,0 z"
       inkscape:connector-curvature="0" />
    <path
       style="opacity:0.4;fill:#000000;fill-opacity:1;stroke:none;stroke-width:1;stroke-linecap:round;stroke-linejoin:round;stroke-miterlimit:4;stroke-dasharray:none;stroke-opacity:1"
       id="path4458"
       d="m 57.145688,1022.5334 c -0.60321,0.7842 -1.15867,1.6041 -1.74625,2.3997 -0.40793,0.6728 -0.82977,1.3313 -1.29326,1.9693 -0.32945,0.6084 -0.68332,1.1981 -1.06531,1.7758 -0.61162,0.7697 -0.33406,1.0573 -2.16926,-1.1482 -0.0293,-0.035 0.47471,-0.4377 0.54357,-0.4941 0.52359,-0.6236 1.23515,-1.0231 1.8882,-1.4883 0.4878,-0.4786 1.16385,-0.7554 1.6352,-1.245 0.5656,-0.586 1.38405,-0.7632 2.06133,-1.1666 0.55222,-0.3202 1.1417,-0.5689 1.74725,-0.7649 1.46166,-0.1307 2.14779,0.7842 1.95208,2.1801 -0.23476,0.9292 -0.75584,1.7398 -1.32727,2.4953 -0.4711,0.5978 -0.92448,1.1991 -1.42341,1.7743 -0.33681,0.4353 -0.61275,0.9031 -0.8849,1.3811 -0.99389,1.3738 -0.15389,1.0217 -2.65217,-0.3468 0.6533,-0.7849 1.24161,-1.6218 1.97937,-2.3333 0.58925,-0.5886 1.14757,-1.1903 1.763,-1.7513 0.53271,-0.6259 1.2714,-0.9557 1.99992,-1.2941 0.64824,-0.3662 1.26813,-0.7459 1.97075,-1.0032 0.98321,-0.4151 1.35842,-0.6076 2.45097,-0.3371 1.73096,0.9452 0.55396,2.6848 -0.16101,3.8634 -0.65696,1.1095 -1.50626,2.08 -2.26674,3.1157 -0.51994,0.6837 -0.94772,1.4288 -1.45102,2.1233 -0.35532,0.4333 -0.69927,0.8706 -0.9002,1.3945 -0.21676,0.4055 -0.72187,1.5511 -1.35898,1.3911 -1.76515,-0.4433 -1.49016,-0.834 -1.36448,-1.8675 0.75976,-1.2636 1.96068,-2.201 3.14713,-3.0489 0.85907,-0.5447 1.76112,-1.0065 2.61058,-1.5668 0.66885,-0.4561 1.39046,-0.7356 2.18567,-0.8657 1.37352,-0.1673 2.13812,0.5622 2.54695,1.7958 0.25597,1.2337 -0.46063,2.1003 -1.34159,2.8422 -0.42174,0.4653 -0.85856,0.9139 -1.32693,1.3324 -1.29441,1.1344 -2.89869,-0.6962 -1.60427,-1.8305 l 0,0 c 0.49572,-0.4184 0.89934,-0.9241 1.3699,-1.3693 0.18009,-0.149 0.47162,-0.4163 0.50299,-0.3902 0.36858,0.3069 -0.12915,0.013 0.0723,0.1275 -0.0113,-0.049 -0.0646,-0.1082 -0.0339,-0.1486 0.0456,-0.06 0.13227,0.084 0.20734,0.089 0.0686,0 0.26015,-0.032 0.19747,-0.06 -0.068,-0.031 -0.14881,0.012 -0.22322,0.018 -0.45538,0.059 -0.83216,0.2324 -1.21616,0.4938 -0.82889,0.5429 -1.69706,1.0112 -2.54492,1.522 -0.52793,0.3649 -1.00408,0.7738 -1.48736,1.196 -0.13467,0.1176 -0.27136,0.2332 -0.40055,0.3568 -0.10867,0.104 -0.17683,0.2606 -0.3125,0.3255 -0.0527,0.025 -0.001,-0.1168 -0.002,-0.1752 -0.10968,-0.719 -0.0637,-0.8891 -1.46574,-1.1619 -0.2686,-0.052 -0.43597,0.332 -0.66764,0.4776 -0.0799,0.05 0.29899,-0.3605 0.25084,-0.3905 0.29067,-0.7055 0.69487,-1.3404 1.19166,-1.9206 0.50924,-0.6935 0.93371,-1.4461 1.45676,-2.1311 0.71904,-0.9776 1.52079,-1.8939 2.14746,-2.9374 0.10828,-0.1782 0.4466,-0.7304 0.56894,-0.947 0.0514,-0.091 0.044,-0.3013 0.14578,-0.2776 6.9e-4,10e-5 0.23507,0.8976 0.63684,0.8898 0.0893,0.01 0.17851,0.015 0.26799,0.015 0.0181,0 0.0106,-0.059 -0.007,-0.054 -0.34673,0.1053 -0.66351,0.3112 -1.01463,0.4065 -0.63759,0.2057 -1.15008,0.6431 -1.75834,0.9171 -0.53655,0.2455 -1.00693,0.4136 -1.38601,0.8881 -0.60621,0.5462 -1.14201,1.1502 -1.7291,1.7201 -0.59909,0.5388 -1.00132,1.2456 -1.56378,1.8191 -0.75699,-0.2987 -1.55215,-0.5146 -2.27097,-0.8961 -0.104,-0.055 0.63664,-1.1325 0.73047,-1.2306 0.35454,-0.6109 0.71742,-1.2124 1.15931,-1.7657 0.46622,-0.5329 0.88353,-1.0957 1.32353,-1.6519 0.34319,-0.4436 0.65546,-0.9147 0.86446,-1.438 0.0325,-0.062 0.13381,0.297 0.22873,0.3738 0.31839,0.2577 0.49861,0.3066 0.88074,0.2075 -0.41008,0.1604 -0.84749,0.3071 -1.22953,0.5512 -0.52678,0.2829 -1.12328,0.4663 -1.59331,0.8283 -0.5939,0.5247 -1.27383,0.9358 -1.88235,1.4446 -0.6127,0.4286 -1.2576,0.8045 -1.74961,1.383 -0.0636,0.052 -0.11775,0.1182 -0.19074,0.1558 -0.0296,0.015 0.0793,-0.064 0.0529,-0.085 -1.66341,-1.2865 -2.54844,-0.8129 -1.80599,-1.6582 0.403,-0.606 0.75425,-1.2364 1.12554,-1.8625 0.47042,-0.6452 0.88351,-1.3156 1.30871,-1.9904 0.61097,-0.8129 1.17392,-1.6634 1.7983,-2.467 1.07519,-1.344 2.97589,0.1766 1.90069,1.5206 z"
       inkscape:connector-curvature="0" />
    <path
       inkscape:connector-curvature="0"
       d="m 86.354613,1022.1277 c -0.60321,0.7842 -1.15867,1.6041 -1.74625,2.3997 -0.40793,0.6728 -0.82977,1.3313 -1.29326,1.9693 -0.32945,0.6084 -0.68332,1.1981 -1.06531,1.7758 -0.61162,0.7697 -0.33406,1.0573 -2.16926,-1.1482 -0.0293,-0.035 0.47471,-0.4377 0.54357,-0.4941 0.52359,-0.6236 1.23515,-1.0231 1.8882,-1.4883 0.4878,-0.4786 1.16385,-0.7554 1.6352,-1.245 0.5656,-0.586 1.38405,-0.7632 2.06133,-1.1666 0.55222,-0.3202 1.1417,-0.5689 1.74725,-0.7649 1.46166,-0.1307 2.14779,0.7842 1.95208,2.1801 -0.23476,0.9292 -0.75584,1.7398 -1.32727,2.4953 -0.4711,0.5978 -0.92448,1.1991 -1.42341,1.7743 -0.33681,0.4353 -0.61275,0.9031 -0.8849,1.3811 -0.99389,1.3738 -0.15389,1.0217 -2.65217,-0.3468 0.6533,-0.7849 1.24161,-1.6218 1.97937,-2.3333 0.58925,-0.5886 1.14757,-1.1903 1.763,-1.7513 0.53271,-0.6259 1.2714,-0.9557 1.99992,-1.2941 0.64824,-0.3662 1.26813,-0.7459 1.97075,-1.0032 0.98321,-0.4151 1.35842,-0.6076 2.45097,-0.3371 1.73096,0.9452 0.55396,2.6848 -0.16101,3.8634 -0.65696,1.1095 -1.50626,2.08 -2.26674,3.1157 -0.51994,0.6837 -0.94772,1.4288 -1.45102,2.1233 -0.35532,0.4333 -0.69927,0.8706 -0.9002,1.3945 -0.21676,0.4055 -0.72187,1.5511 -1.35898,1.3911 -1.76515,-0.4433 -1.49016,-0.834 -1.36448,-1.8675 0.75976,-1.2636 1.96068,-2.201 3.14713,-3.0489 0.85907,-0.5447 1.76112,-1.0065 2.61058,-1.5668 0.66885,-0.4561 1.39046,-0.7356 2.18567,-0.8657 1.37352,-0.1673 2.13812,0.5622 2.54695,1.7958 0.25597,1.2337 -0.46063,2.1003 -1.34159,2.8422 -0.42174,0.4653 -0.85856,0.9139 -1.32693,1.3324 -1.29441,1.1344 -2.89869,-0.6962 -1.60427,-1.8305 l 0,0 c 0.49572,-0.4184 0.89934,-0.9241 1.3699,-1.3693 0.18009,-0.149 0.47162,-0.4163 0.50299,-0.3902 0.36858,0.3069 -0.12915,0.013 0.0723,0.1275 -0.0113,-0.049 -0.0646,-0.1082 -0.0339,-0.1486 0.0456,-0.06 0.13227,0.084 0.20734,0.089 0.0686,0 0.26015,-0.032 0.19747,-0.06 -0.068,-0.031 -0.14881,0.012 -0.22322,0.018 -0.45538,0.059 -0.83216,0.2324 -1.21616,0.4938 -0.82889,0.5429 -1.69706,1.0112 -2.54492,1.522 -0.52793,0.3649 -1.00408,0.7738 -1.48736,1.196 -0.13467,0.1176 -0.27136,0.2332 -0.40055,0.3568 -0.10867,0.104 -0.17683,0.2606 -0.3125,0.3255 -0.0527,0.025 -10e-4,-0.1168 -0.002,-0.1752 -0.10968,-0.719 -0.0637,-0.8891 -1.46574,-1.1619 -0.2686,-0.052 -0.43597,0.332 -0.66764,0.4776 -0.0799,0.05 0.29899,-0.3605 0.25084,-0.3905 0.29067,-0.7055 0.69487,-1.3404 1.19166,-1.9206 0.50924,-0.6935 0.93371,-1.4461 1.45676,-2.1311 0.71904,-0.9776 1.52079,-1.8939 2.14746,-2.9374 0.10828,-0.1782 0.4466,-0.7304 0.56894,-0.947 0.0514,-0.091 0.044,-0.3013 0.14578,-0.2776 6.9e-4,10e-5 0.23507,0.8976 0.63684,0.8898 0.0893,0.01 0.17851,0.015 0.26799,0.015 0.0181,0 0.0106,-0.059 -0.007,-0.054 -0.34673,0.1053 -0.66351,0.3112 -1.01463,0.4065 -0.63759,0.2057 -1.15008,0.6431 -1.75834,0.9171 -0.53655,0.2455 -1.00693,0.4136 -1.38601,0.8881 -0.60621,0.5462 -1.14201,1.1502 -1.7291,1.7201 -0.59909,0.5388 -1.00132,1.2456 -1.56378,1.8191 -0.75699,-0.2987 -1.55215,-0.5146 -2.27097,-0.8961 -0.104,-0.055 0.63664,-1.1325 0.73047,-1.2306 0.35454,-0.6109 0.71742,-1.2124 1.15931,-1.7657 0.46622,-0.5329 0.88353,-1.0957 1.32353,-1.6519 0.34319,-0.4436 0.65546,-0.9147 0.86446,-1.438 0.0325,-0.062 0.13381,0.297 0.22873,0.3738 0.31839,0.2577 0.49861,0.3066 0.88074,0.2075 -0.41008,0.1604 -0.84749,0.3071 -1.22953,0.5512 -0.52678,0.2829 -1.12328,0.4663 -1.59331,0.8283 -0.5939,0.5247 -1.27383,0.9358 -1.88235,1.4446 -0.6127,0.4286 -1.2576,0.8045 -1.74961,1.383 -0.0636,0.052 -0.11775,0.1182 -0.19074,0.1558 -0.0296,0.015 0.0793,-0.064 0.0529,-0.085 -1.66341,-1.2865 -2.54844,-0.8129 -1.80599,-1.6582 0.403,-0.606 0.75425,-1.2364 1.12554,-1.8625 0.47042,-0.6452 0.88351,-1.3156 1.30871,-1.9904 0.61097,-0.8129 1.17392,-1.6634 1.7983,-2.467 1.07519,-1.344 2.97589,0.1766 1.90069,1.5206 z"
       id="path4460"
       style="opacity:0.4;fill:#000000;fill-opacity:1;stroke:none;stroke-width:1;stroke-linecap:round;stroke-linejoin:round;stroke-miterlimit:4;stroke-dasharray:none;stroke-opacity:1" />
    <path
       style="opacity:0.4;fill:#000000;fill-opacity:1;stroke:none;stroke-width:1;stroke-linecap:round;stroke-linejoin:round;stroke-miterlimit:4;stroke-dasharray:none;stroke-opacity:1"
       id="path4464"
       d="m 89.249493,898.85226 c 0,1.18866 0,2.37733 0,3.566 -0.0082,1.57663 0.03259,3.1533 -0.05033,4.72813 -0.20118,2.13219 -0.706222,4.21586 -1.144315,6.30746 -0.514952,3.00756 -1.250663,5.97037 -1.870014,8.95676 -0.700299,3.6874 -1.371336,7.38034 -2.006943,11.07954 -0.647893,3.74439 -0.833943,7.54324 -0.955795,11.33441 -0.09656,2.76481 -0.173816,5.54021 0.488306,8.24299 0.241371,1.02606 0.864059,1.74414 1.624807,2.41103 0.120768,0.16983 0.336301,0.30273 0.362303,0.50949 0.05814,0.46231 -0.0015,0.94261 -0.123123,1.39242 -0.03014,0.11152 -1.57751,2.04352 -1.74932,2.28078 -1.199954,1.5366 -1.473407,3.42965 -1.702205,5.30761 -0.191334,2.01166 -0.194796,4.03429 -0.196879,6.05305 -0.0053,1.25675 0.07546,2.51017 -0.112883,3.75634 -0.09765,0.58584 -0.420372,1.02303 -0.803473,1.45112 -1.198566,1.23524 -2.945451,-0.45979 -1.746885,-1.69503 l 0,0 c 0.128406,-0.0566 0.03611,0.12436 0.145119,-0.12966 0.18049,-1.11992 0.0537,-2.25524 0.08405,-3.38534 0.0023,-2.1175 0.008,-4.23913 0.215211,-6.34867 0.285416,-2.28576 0.69658,-4.56953 2.147829,-6.43888 0.505346,-0.69524 0.506753,-0.71502 1.025849,-1.36321 0.129953,-0.16227 0.261453,-0.32339 0.397187,-0.48086 0.04621,-0.0536 0.123851,-0.21839 0.148301,-0.15197 0.479338,1.30226 -0.179256,0.62539 0.304375,1.07315 -1.14093,-1.0002 -2.010208,-2.16906 -2.387138,-3.67338 -0.688946,-2.9207 -0.684449,-5.90233 -0.554242,-8.88933 0.125972,-3.90308 0.321789,-7.81359 0.989693,-11.66828 0.640442,-3.72675 1.316269,-7.44727 2.02258,-11.162 0.620622,-2.98766 1.355046,-5.95218 1.870915,-8.96108 0.412868,-1.97114 0.889705,-3.93396 1.096231,-5.94104 0.08683,-1.53018 0.03239,-3.06342 0.04672,-4.59555 0,-1.18867 0,-2.37734 0,-3.566 0,-1.72116 2.434077,-1.72116 2.434077,0 z"
       inkscape:connector-curvature="0" />
    <text
       sodipodi:linespacing="125%"
       id="text4466"
       y="966.15527"
       x="88.235268"
       style="font-style:normal;font-weight:normal;font-size:40px;line-height:125%;font-family:sans-serif;letter-spacing:0px;word-spacing:0px;opacity:0.4;fill:#000000;fill-opacity:1;stroke:none;stroke-width:1px;stroke-linecap:butt;stroke-linejoin:miter;stroke-opacity:1"
       xml:space="preserve"><tspan
         style="font-style:italic;font-variant:normal;font-weight:normal;font-stretch:normal;font-size:22.5px;font-family:sans-serif;-inkscape-font-specification:'sans-serif Italic'"
         y="966.15527"
         x="88.235268"
         id="tspan4468"
         sodipodi:role="line">d</tspan></text>
    <path
       style="fill:none;fill-rule:evenodd;stroke:#000000;stroke-width:1px;stroke-linecap:butt;stroke-linejoin:miter;stroke-opacity:1"
       d="m 164.70588,858.85303 0,186.61257"
       id="path4470"
       inkscape:connector-curvature="0" />
    <text
       xml:space="preserve"
       style="font-style:normal;font-weight:normal;font-size:40px;line-height:125%;font-family:sans-serif;letter-spacing:0px;word-spacing:0px;fill:#000000;fill-opacity:1;stroke:none;stroke-width:1px;stroke-linecap:butt;stroke-linejoin:miter;stroke-opacity:1"
       x="6.8965521"
       y="871.42914"
       id="text4472"
       sodipodi:linespacing="125%"><tspan
         sodipodi:role="line"
         id="tspan4474"
         x="6.8965521"
         y="871.42914"
         style="font-size:15px"><tspan
           style="-inkscape-font-specification:'sans-serif Italic';font-family:sans-serif;font-weight:normal;font-style:italic;font-stretch:normal;font-variant:normal;fill:#0000ff;fill-opacity:1"
           id="tspan4480">f</tspan><tspan
           style="fill:#0000ff;fill-opacity:1"
           id="tspan4496">[</tspan><tspan
           style="-inkscape-font-specification:'sans-serif Italic';font-family:sans-serif;font-weight:normal;font-style:italic;font-stretch:normal;font-variant:normal;fill:#ff0000;fill-opacity:1"
           id="tspan4478">u</tspan><tspan
           style="fill:#0000ff;fill-opacity:1"
           id="tspan4498">][</tspan><tspan
           style="-inkscape-font-specification:'sans-serif Italic';font-family:sans-serif;font-weight:normal;font-style:italic;font-stretch:normal;font-variant:normal;fill:#c0c0c0;fill-opacity:1"
           id="tspan4476">d</tspan><tspan
           style="fill:#0000ff;fill-opacity:1"
           id="tspan4500">]</tspan></tspan></text>
    <text
       sodipodi:linespacing="125%"
       id="text4502"
       y="871.42914"
       x="263.69168"
       style="font-style:normal;font-weight:normal;font-size:40px;line-height:125%;font-family:sans-serif;letter-spacing:0px;word-spacing:0px;fill:#000000;fill-opacity:1;stroke:none;stroke-width:1px;stroke-linecap:butt;stroke-linejoin:miter;stroke-opacity:1"
       xml:space="preserve"><tspan
         style="font-size:15px"
         y="871.42914"
         x="263.69168"
         id="tspan4504"
         sodipodi:role="line"><tspan
           id="tspan4506"
           style="font-style:italic;font-variant:normal;font-weight:normal;font-stretch:normal;font-family:sans-serif;-inkscape-font-specification:'sans-serif Italic';fill:#009a00;fill-opacity:1">g</tspan><tspan
           id="tspan4508"
           style="fill:#009a00;fill-opacity:1">[</tspan><tspan
           id="tspan4510"
           style="font-style:italic;font-variant:normal;font-weight:normal;font-stretch:normal;font-family:sans-serif;-inkscape-font-specification:'sans-serif Italic';fill:#ff0000;fill-opacity:1">u</tspan><tspan
           style="fill:#009a00;fill-opacity:1"
           id="tspan4520">][</tspan><tspan
           id="tspan4514"
           style="font-style:italic;font-variant:normal;font-weight:normal;font-stretch:normal;font-family:sans-serif;-inkscape-font-specification:'sans-serif Italic';fill:#c0c0c0;fill-opacity:1">d</tspan><tspan
           style="fill:#009a00;fill-opacity:1"
           id="tspan4524">]</tspan></tspan></text>
    <g
       id="g4538">
      <path
         inkscape:connector-curvature="0"
         d="m 67.539108,980.1412 c 1.89061,-0.50589 3.87708,-0.6796 5.82862,-0.61195 2.30157,0.29687 3.41315,0.9583 4.23309,3.15175 0.41882,1.32615 0.34748,2.56627 -0.20015,3.8316 -0.37908,0.88292 -1.08022,1.55296 -1.50972,2.40345 -0.0859,0.15019 -0.1719,0.30038 -0.25784,0.45058 -0.85758,1.49229 -2.968,0.2795 -2.11042,-1.2128 l 0,0 c 0.0706,-0.12216 0.14113,-0.24431 0.21169,-0.36647 0.43252,-0.80848 1.02536,-1.49039 1.4568,-2.29598 0.38747,-0.71727 0.29359,-1.22038 0.11221,-2.00629 -0.35306,-1.16447 -0.79357,-1.34945 -2.03771,-1.5239 -1.61272,-0.0834 -3.24272,0.11386 -4.82257,0.44 -1.59805,0.63922 -2.50205,-1.62077 -0.904,-2.25999 z"
         id="path4534"
         style="opacity:0.4;fill:#000000;fill-opacity:1;stroke:none;stroke-width:1;stroke-linecap:round;stroke-linejoin:round;stroke-miterlimit:4;stroke-dasharray:none;stroke-opacity:1" />
      <path
         inkscape:connector-curvature="0"
         d="m 73.671318,992.0608 c 0.25432,0.28278 0.5606,0.50947 0.85452,0.7481 1.33552,1.08572 -0.19991,2.97442 -1.53542,1.88871 l 0,0 c -0.35809,-0.29145 -0.72599,-0.57539 -1.04026,-0.91566 -1.21704,-1.21704 0.50412,-2.93819 1.72116,-1.72115 z"
         id="path4536"
         style="opacity:0.4;fill:#000000;fill-opacity:1;stroke:none;stroke-width:1;stroke-linecap:round;stroke-linejoin:round;stroke-miterlimit:4;stroke-dasharray:none;stroke-opacity:1" />
    </g>
    <g
       id="g4542"
       transform="translate(-26.774848,-31.643002)">
      <path
         style="opacity:0.4;fill:#000000;fill-opacity:1;stroke:none;stroke-width:1;stroke-linecap:round;stroke-linejoin:round;stroke-miterlimit:4;stroke-dasharray:none;stroke-opacity:1"
         id="path4544"
         d="m 67.539108,980.1412 c 1.89061,-0.50589 3.87708,-0.6796 5.82862,-0.61195 2.30157,0.29687 3.41315,0.9583 4.23309,3.15175 0.41882,1.32615 0.34748,2.56627 -0.20015,3.8316 -0.37908,0.88292 -1.08022,1.55296 -1.50972,2.40345 -0.0859,0.15019 -0.1719,0.30038 -0.25784,0.45058 -0.85758,1.49229 -2.968,0.2795 -2.11042,-1.2128 l 0,0 c 0.0706,-0.12216 0.14113,-0.24431 0.21169,-0.36647 0.43252,-0.80848 1.02536,-1.49039 1.4568,-2.29598 0.38747,-0.71727 0.29359,-1.22038 0.11221,-2.00629 -0.35306,-1.16447 -0.79357,-1.34945 -2.03771,-1.5239 -1.61272,-0.0834 -3.24272,0.11386 -4.82257,0.44 -1.59805,0.63922 -2.50205,-1.62077 -0.904,-2.25999 z"
         inkscape:connector-curvature="0" />
      <path
         style="opacity:0.4;fill:#000000;fill-opacity:1;stroke:none;stroke-width:1;stroke-linecap:round;stroke-linejoin:round;stroke-miterlimit:4;stroke-dasharray:none;stroke-opacity:1"
         id="path4546"
         d="m 73.671318,992.0608 c 0.25432,0.28278 0.5606,0.50947 0.85452,0.7481 1.33552,1.08572 -0.19991,2.97442 -1.53542,1.88871 l 0,0 c -0.35809,-0.29145 -0.72599,-0.57539 -1.04026,-0.91566 -1.21704,-1.21704 0.50412,-2.93819 1.72116,-1.72115 z"
         inkscape:connector-curvature="0" />
    </g>
    <g
       transform="translate(51.115619,-46.653144)"
       id="g4548">
      <path
         inkscape:connector-curvature="0"
         d="m 67.539108,980.1412 c 1.89061,-0.50589 3.87708,-0.6796 5.82862,-0.61195 2.30157,0.29687 3.41315,0.9583 4.23309,3.15175 0.41882,1.32615 0.34748,2.56627 -0.20015,3.8316 -0.37908,0.88292 -1.08022,1.55296 -1.50972,2.40345 -0.0859,0.15019 -0.1719,0.30038 -0.25784,0.45058 -0.85758,1.49229 -2.968,0.2795 -2.11042,-1.2128 l 0,0 c 0.0706,-0.12216 0.14113,-0.24431 0.21169,-0.36647 0.43252,-0.80848 1.02536,-1.49039 1.4568,-2.29598 0.38747,-0.71727 0.29359,-1.22038 0.11221,-2.00629 -0.35306,-1.16447 -0.79357,-1.34945 -2.03771,-1.5239 -1.61272,-0.0834 -3.24272,0.11386 -4.82257,0.44 -1.59805,0.63922 -2.50205,-1.62077 -0.904,-2.25999 z"
         id="path4550"
         style="opacity:0.4;fill:#000000;fill-opacity:1;stroke:none;stroke-width:1;stroke-linecap:round;stroke-linejoin:round;stroke-miterlimit:4;stroke-dasharray:none;stroke-opacity:1" />
      <path
         inkscape:connector-curvature="0"
         d="m 73.671318,992.0608 c 0.25432,0.28278 0.5606,0.50947 0.85452,0.7481 1.33552,1.08572 -0.19991,2.97442 -1.53542,1.88871 l 0,0 c -0.35809,-0.29145 -0.72599,-0.57539 -1.04026,-0.91566 -1.21704,-1.21704 0.50412,-2.93819 1.72116,-1.72115 z"
         id="path4552"
         style="opacity:0.4;fill:#000000;fill-opacity:1;stroke:none;stroke-width:1;stroke-linecap:round;stroke-linejoin:round;stroke-miterlimit:4;stroke-dasharray:none;stroke-opacity:1" />
    </g>
  </g>
</svg>
